# MagicaVoxel @ Ephtracy

# group
o 

# material
mtllib hunter_v0_walk_1.mtl
usemtl palette

# normals
vn -1 0 0
vn 1 0 0
vn 0 0 1
vn 0 0 -1
vn 0 -1 0
vn 0 1 0

# texcoords
vt 0.0839844 0.5
vt 0.279297 0.5
vt 0.498047 0.5
vt 0.591797 0.5
vt 0.771484 0.5
vt 0.955078 0.5
vt 0.990234 0.5

# verts
v -0.4 1.5 0.1
v -0.4 1.5 5.96046e-08
v -0.4 1.7 0.1
v -0.4 1.7 5.96046e-08
v -0.3 0.6 0.1
v -0.3 0.6 -0.1
v -0.3 0.7 0.1
v -0.3 0.7 -0.1
v -0.3 1.2 0.1
v -0.3 1.2 -0.1
v -0.3 1.3 0.3
v -0.3 1.3 -0.2
v -0.3 1.3 -0.3
v -0.3 1.4 5.96046e-08
v -0.3 1.4 -0.2
v -0.3 1.5 0.1
v -0.3 1.5 5.96046e-08
v -0.3 1.7 0.2
v -0.3 1.7 0.1
v -0.3 1.7 5.96046e-08
v -0.3 1.8 0.3
v -0.3 1.8 0.2
v -0.3 1.8 -0.2
v -0.3 1.8 -0.3
v -0.3 1.9 5.96046e-08
v -0.3 1.9 -0.2
v -0.3 2 0.3
v -0.3 2 5.96046e-08
v -0.2 0 0.2
v -0.2 0 -0.1
v -0.2 0.1 0.2
v -0.2 0.1 0.1
v -0.2 0.1 -0.1
v -0.2 0.6 0.1
v -0.2 0.6 -0.1
v -0.2 1.8 -0.2
v -0.2 1.8 -0.3
v -0.2 1.9 0.4
v -0.2 1.9 0.3
v -0.2 1.9 5.96046e-08
v -0.2 1.9 -0.2
v -0.2 1.9 -0.3
v -0.2 2 0.3
v -0.2 2 0.2
v -0.2 2 5.96046e-08
v -0.2 2 -0.2
v -0.2 2.1 0.4
v -0.2 2.1 0.2
v -0.1 1.2 0.1
v -0.1 1.2 -0.1
v -0.1 1.3 0.1
v -0.1 1.3 -0.1
v 0.1 0.1 -0.2
v 0.1 0.1 -0.3
v 0.1 0.2 0.1
v 0.1 0.2 -0.2
v 0.1 0.4 -0.1
v 0.1 0.4 -0.2
v 0.1 0.4 -0.3
v 0.1 0.5 0.1
v 0.1 0.5 -0.1
v -0.1 0 0.2
v -0.1 0 -0.1
v -0.1 0.1 0.2
v -0.1 0.1 0.1
v -0.1 0.1 -0.1
v -0.1 0.5 0.1
v -0.1 0.5 -0.1
v 0.1 1.2 0.1
v 0.1 1.2 -0.1
v 0.1 1.3 0.1
v 0.1 1.3 -0.1
v 0.2 0.1 -0.2
v 0.2 0.1 -0.3
v 0.2 0.2 0.1
v 0.2 0.2 -0.2
v 0.2 0.4 -0.1
v 0.2 0.4 -0.2
v 0.2 0.4 -0.3
v 0.2 0.6 0.1
v 0.2 0.6 -0.1
v 0.2 1.8 -0.2
v 0.2 1.8 -0.3
v 0.2 1.9 0.4
v 0.2 1.9 0.3
v 0.2 1.9 5.96046e-08
v 0.2 1.9 -0.1
v 0.2 1.9 -0.2
v 0.2 1.9 -0.3
v 0.2 2 0.3
v 0.2 2 0.2
v 0.2 2 5.96046e-08
v 0.2 2 -0.2
v 0.2 2.1 0.4
v 0.2 2.1 0.2
v 0.3 0.6 0.1
v 0.3 0.6 -0.1
v 0.3 0.7 0.1
v 0.3 0.7 -0.1
v 0.3 1.2 0.1
v 0.3 1.2 -0.1
v 0.3 1.3 0.3
v 0.3 1.3 -0.2
v 0.3 1.3 -0.3
v 0.3 1.4 5.96046e-08
v 0.3 1.4 -0.2
v 0.3 1.5 0.1
v 0.3 1.5 5.96046e-08
v 0.3 1.7 0.2
v 0.3 1.7 0.1
v 0.3 1.7 5.96046e-08
v 0.3 1.7 -0.1
v 0.3 1.8 0.3
v 0.3 1.8 0.2
v 0.3 1.8 0.1
v 0.3 1.8 -0.2
v 0.3 1.8 -0.3
v 0.3 1.9 5.96046e-08
v 0.3 1.9 -0.1
v 0.3 1.9 -0.2
v 0.3 2 0.3
v 0.3 2 0.2
v 0.3 2 0.1
v 0.3 2 5.96046e-08
v 0.4 1.5 0.1
v 0.4 1.5 5.96046e-08
v 0.4 1.7 0.1
v 0.4 1.7 5.96046e-08
v -0.2 1.9 0.4
v -0.2 2.1 0.4
v 0.2 1.9 0.4
v 0.2 2.1 0.4
v -0.3 1.3 0.3
v -0.3 1.8 0.3
v -0.3 2 0.3
v -0.2 1.5 0.3
v -0.2 1.7 0.3
v -0.2 1.9 0.3
v -0.2 2 0.3
v -0.1 1.5 0.3
v -0.1 1.7 0.3
v 0.1 1.5 0.3
v 0.1 1.7 0.3
v 0.2 1.5 0.3
v 0.2 1.7 0.3
v 0.2 1.9 0.3
v 0.2 2 0.3
v 0.3 1.3 0.3
v 0.3 1.8 0.3
v 0.3 2 0.3
v -0.2 0 0.2
v -0.2 0.1 0.2
v -0.1 0 0.2
v -0.1 0.1 0.2
v -0.4 1.5 0.1
v -0.4 1.7 0.1
v -0.3 0.6 0.1
v -0.3 0.7 0.1
v -0.3 1.2 0.1
v -0.3 1.5 0.1
v -0.3 1.7 0.1
v -0.2 0.1 0.1
v -0.2 0.6 0.1
v -0.2 0.7 0.1
v -0.1 0.1 0.1
v -0.1 0.5 0.1
v -0.1 1.2 0.1
v -0.1 1.3 0.1
v 0.1 0.2 0.1
v 0.1 0.5 0.1
v 0.1 1.2 0.1
v 0.1 1.3 0.1
v 0.2 0.2 0.1
v 0.2 0.6 0.1
v 0.2 0.7 0.1
v 0.3 0.6 0.1
v 0.3 0.7 0.1
v 0.3 1.2 0.1
v 0.3 1.5 0.1
v 0.3 1.7 0.1
v 0.4 1.5 0.1
v 0.4 1.7 0.1
v 0.1 0.1 -0.2
v 0.1 0.2 -0.2
v 0.2 0.1 -0.2
v 0.2 0.2 -0.2
v -0.2 2 0.2
v -0.2 2.1 0.2
v 0.2 2 0.2
v 0.2 2.1 0.2
v -0.4 1.5 5.96046e-08
v -0.4 1.7 5.96046e-08
v -0.3 1.5 5.96046e-08
v -0.3 1.7 5.96046e-08
v -0.3 1.9 5.96046e-08
v -0.3 2 5.96046e-08
v -0.2 1.9 5.96046e-08
v -0.2 2 5.96046e-08
v 0.2 1.9 5.96046e-08
v 0.2 2 5.96046e-08
v 0.3 1.5 5.96046e-08
v 0.3 1.7 5.96046e-08
v 0.3 1.9 5.96046e-08
v 0.3 2 5.96046e-08
v 0.4 1.5 5.96046e-08
v 0.4 1.7 5.96046e-08
v -0.3 0.6 -0.1
v -0.3 0.7 -0.1
v -0.3 1.2 -0.1
v -0.2 0 -0.1
v -0.2 0.1 -0.1
v -0.2 0.6 -0.1
v -0.2 0.7 -0.1
v -0.1 0 -0.1
v -0.1 0.1 -0.1
v -0.1 0.5 -0.1
v -0.1 1.2 -0.1
v -0.1 1.3 -0.1
v 0.1 0.4 -0.1
v 0.1 0.5 -0.1
v 0.1 1.2 -0.1
v 0.1 1.3 -0.1
v 0.2 0.4 -0.1
v 0.2 0.6 -0.1
v 0.2 0.7 -0.1
v 0.3 0.6 -0.1
v 0.3 0.7 -0.1
v 0.3 1.2 -0.1
v -0.3 1.8 -0.2
v -0.3 1.9 -0.2
v -0.2 1.8 -0.2
v -0.2 1.9 -0.2
v -0.2 2 -0.2
v 0.2 1.8 -0.2
v 0.2 1.9 -0.2
v 0.2 2 -0.2
v 0.3 1.8 -0.2
v 0.3 1.9 -0.2
v -0.3 1.3 -0.3
v -0.3 1.8 -0.3
v -0.2 1.8 -0.3
v -0.2 1.9 -0.3
v 0.1 0.1 -0.3
v 0.1 0.4 -0.3
v 0.2 0.1 -0.3
v 0.2 0.4 -0.3
v 0.2 1.8 -0.3
v 0.2 1.9 -0.3
v 0.3 1.3 -0.3
v 0.3 1.8 -0.3
v -0.2 0 0.2
v -0.1 0 0.2
v -0.2 0 -0.1
v -0.1 0 -0.1
v 0.1 0.1 -0.2
v 0.2 0.1 -0.2
v 0.1 0.1 -0.3
v 0.2 0.1 -0.3
v 0.1 0.2 0.1
v 0.2 0.2 0.1
v 0.1 0.2 -0.2
v 0.2 0.2 -0.2
v -0.1 0.5 0.1
v 0.1 0.5 0.1
v -0.1 0.5 -0.1
v 0.1 0.5 -0.1
v -0.3 0.6 0.1
v -0.2 0.6 0.1
v 0.2 0.6 0.1
v 0.3 0.6 0.1
v -0.3 0.6 -0.1
v -0.2 0.6 -0.1
v 0.2 0.6 -0.1
v 0.3 0.6 -0.1
v -0.3 1.3 0.3
v 0.3 1.3 0.3
v -0.1 1.3 0.1
v 0.1 1.3 0.1
v -0.1 1.3 -0.1
v 0.1 1.3 -0.1
v -0.3 1.3 -0.2
v 0.3 1.3 -0.2
v -0.3 1.3 -0.3
v 0.3 1.3 -0.3
v -0.4 1.5 0.1
v -0.3 1.5 0.1
v 0.3 1.5 0.1
v 0.4 1.5 0.1
v -0.4 1.5 5.96046e-08
v -0.3 1.5 5.96046e-08
v 0.3 1.5 5.96046e-08
v 0.4 1.5 5.96046e-08
v -0.2 1.9 0.4
v 0.2 1.9 0.4
v -0.2 1.9 0.3
v 0.2 1.9 0.3
v -0.2 0.1 0.2
v -0.1 0.1 0.2
v -0.2 0.1 0.1
v -0.1 0.1 0.1
v 0.1 0.4 -0.1
v 0.2 0.4 -0.1
v 0.1 0.4 -0.2
v 0.2 0.4 -0.2
v 0.1 0.4 -0.3
v 0.2 0.4 -0.3
v -0.3 1.2 0.1
v -0.1 1.2 0.1
v 0.1 1.2 0.1
v 0.3 1.2 0.1
v -0.3 1.2 -0.1
v -0.1 1.2 -0.1
v 0.1 1.2 -0.1
v 0.3 1.2 -0.1
v -0.4 1.7 0.1
v -0.3 1.7 0.1
v 0.3 1.7 0.1
v 0.4 1.7 0.1
v -0.4 1.7 5.96046e-08
v -0.3 1.7 5.96046e-08
v 0.3 1.7 5.96046e-08
v 0.4 1.7 5.96046e-08
v -0.3 1.8 -0.2
v -0.2 1.8 -0.2
v 0.2 1.8 -0.2
v 0.3 1.8 -0.2
v -0.3 1.8 -0.3
v -0.2 1.8 -0.3
v 0.2 1.8 -0.3
v 0.3 1.8 -0.3
v -0.3 1.9 5.96046e-08
v -0.2 1.9 5.96046e-08
v 0.2 1.9 5.96046e-08
v 0.3 1.9 5.96046e-08
v 0.2 1.9 -0.1
v 0.3 1.9 -0.1
v -0.3 1.9 -0.2
v -0.2 1.9 -0.2
v 0.2 1.9 -0.2
v 0.3 1.9 -0.2
v -0.2 1.9 -0.3
v 0.2 1.9 -0.3
v -0.3 2 0.3
v -0.2 2 0.3
v 0.2 2 0.3
v 0.3 2 0.3
v -0.2 2 0.2
v 0.2 2 0.2
v 0.3 2 0.2
v 0.2 2 0.1
v 0.3 2 0.1
v -0.3 2 5.96046e-08
v -0.2 2 5.96046e-08
v 0.2 2 5.96046e-08
v 0.3 2 5.96046e-08
v -0.2 2 -0.2
v 0.2 2 -0.2
v -0.2 2.1 0.4
v 0.2 2.1 0.4
v -0.2 2.1 0.2
v 0.2 2.1 0.2

# faces
f 3/1/1 2/1/1 1/1/1
f 4/1/1 2/1/1 3/1/1
f 7/1/1 6/1/1 5/1/1
f 8/1/1 6/1/1 7/1/1
f 9/4/1 8/4/1 7/4/1
f 10/4/1 8/4/1 9/4/1
f 14/1/1 12/1/1 11/1/1
f 15/2/1 13/2/1 12/2/1
f 15/1/1 12/1/1 14/1/1
f 16/1/1 14/1/1 11/1/1
f 17/2/1 15/2/1 14/2/1
f 17/1/1 14/1/1 16/1/1
f 18/1/1 16/1/1 11/1/1
f 19/1/1 16/1/1 18/1/1
f 20/2/1 15/2/1 17/2/1
f 21/1/1 18/1/1 11/1/1
f 22/2/1 19/2/1 18/2/1
f 22/1/1 18/1/1 21/1/1
f 22/2/1 20/2/1 19/2/1
f 23/2/1 13/2/1 15/2/1
f 23/2/1 20/2/1 22/2/1
f 23/2/1 15/2/1 20/2/1
f 24/2/1 13/2/1 23/2/1
f 25/2/1 22/2/1 21/2/1
f 25/2/1 23/2/1 22/2/1
f 26/2/1 23/2/1 25/2/1
f 27/2/1 25/2/1 21/2/1
f 28/2/1 25/2/1 27/2/1
f 31/6/1 30/6/1 29/6/1
f 32/6/1 30/6/1 31/6/1
f 33/6/1 30/6/1 32/6/1
f 34/3/1 33/3/1 32/3/1
f 35/3/1 33/3/1 34/3/1
f 41/2/1 37/2/1 36/2/1
f 42/2/1 37/2/1 41/2/1
f 43/2/1 39/2/1 38/2/1
f 45/2/1 41/2/1 40/2/1
f 46/2/1 41/2/1 45/2/1
f 47/2/1 44/2/1 43/2/1
f 47/2/1 43/2/1 38/2/1
f 48/2/1 44/2/1 47/2/1
f 51/1/1 50/1/1 49/1/1
f 52/1/1 50/1/1 51/1/1
f 56/6/1 54/6/1 53/6/1
f 57/3/1 56/3/1 55/3/1
f 58/6/1 54/6/1 56/6/1
f 58/3/1 56/3/1 57/3/1
f 59/6/1 54/6/1 58/6/1
f 60/3/1 57/3/1 55/3/1
f 61/3/1 57/3/1 60/3/1
f 62/6/2 63/6/2 64/6/2
f 64/6/2 63/6/2 65/6/2
f 65/6/2 63/6/2 66/6/2
f 65/3/2 66/3/2 67/3/2
f 67/3/2 66/3/2 68/3/2
f 69/1/2 70/1/2 71/1/2
f 71/1/2 70/1/2 72/1/2
f 73/6/2 74/6/2 76/6/2
f 75/3/2 76/3/2 77/3/2
f 76/6/2 74/6/2 78/6/2
f 77/3/2 76/3/2 78/3/2
f 78/6/2 74/6/2 79/6/2
f 75/3/2 77/3/2 80/3/2
f 80/3/2 77/3/2 81/3/2
f 82/2/2 83/2/2 88/2/2
f 88/2/2 83/2/2 89/2/2
f 84/2/2 85/2/2 90/2/2
f 86/2/2 87/2/2 92/2/2
f 87/2/2 88/2/2 92/2/2
f 92/2/2 88/2/2 93/2/2
f 90/2/2 91/2/2 94/2/2
f 84/2/2 90/2/2 94/2/2
f 94/2/2 91/2/2 95/2/2
f 96/1/2 97/1/2 98/1/2
f 98/1/2 97/1/2 99/1/2
f 98/4/2 99/4/2 100/4/2
f 100/4/2 99/4/2 101/4/2
f 102/1/2 103/1/2 105/1/2
f 103/2/2 104/2/2 106/2/2
f 105/1/2 103/1/2 106/1/2
f 102/1/2 105/1/2 107/1/2
f 105/2/2 106/2/2 108/2/2
f 107/1/2 105/1/2 108/1/2
f 102/1/2 107/1/2 109/1/2
f 109/1/2 107/1/2 110/1/2
f 108/2/2 106/2/2 111/2/2
f 111/2/2 106/2/2 112/2/2
f 102/1/2 109/1/2 113/1/2
f 109/2/2 110/2/2 114/2/2
f 113/1/2 109/1/2 114/1/2
f 110/2/2 111/2/2 114/2/2
f 114/2/2 111/2/2 115/2/2
f 106/2/2 104/2/2 116/2/2
f 112/2/2 106/2/2 116/2/2
f 116/2/2 104/2/2 117/2/2
f 115/2/2 111/2/2 118/2/2
f 111/5/2 112/5/2 118/5/2
f 112/2/2 116/2/2 119/2/2
f 118/5/2 112/5/2 119/5/2
f 119/2/2 116/2/2 120/2/2
f 113/2/2 114/2/2 121/2/2
f 114/5/2 115/5/2 122/5/2
f 121/2/2 114/2/2 122/2/2
f 115/2/2 118/2/2 123/2/2
f 122/5/2 115/5/2 123/5/2
f 123/2/2 118/2/2 124/2/2
f 125/1/2 126/1/2 127/1/2
f 127/1/2 126/1/2 128/1/2
f 131/2/3 130/2/3 129/2/3
f 132/2/3 130/2/3 131/2/3
f 136/1/3 134/1/3 133/1/3
f 137/1/3 134/1/3 136/1/3
f 138/2/3 135/2/3 134/2/3
f 139/2/3 135/2/3 138/2/3
f 140/1/3 136/1/3 133/1/3
f 140/7/3 137/7/3 136/7/3
f 141/1/3 134/1/3 137/1/3
f 141/7/3 137/7/3 140/7/3
f 142/1/3 140/1/3 133/1/3
f 142/1/3 141/1/3 140/1/3
f 143/1/3 134/1/3 141/1/3
f 143/1/3 141/1/3 142/1/3
f 144/1/3 142/1/3 133/1/3
f 144/7/3 143/7/3 142/7/3
f 145/1/3 134/1/3 143/1/3
f 145/7/3 143/7/3 144/7/3
f 146/2/3 138/2/3 134/2/3
f 148/1/3 144/1/3 133/1/3
f 148/1/3 145/1/3 144/1/3
f 149/2/3 147/2/3 146/2/3
f 149/1/3 145/1/3 148/1/3
f 149/1/3 134/1/3 145/1/3
f 149/2/3 146/2/3 134/2/3
f 150/2/3 147/2/3 149/2/3
f 153/6/3 152/6/3 151/6/3
f 154/6/3 152/6/3 153/6/3
f 160/1/3 156/1/3 155/1/3
f 161/1/3 156/1/3 160/1/3
f 163/1/3 158/1/3 157/1/3
f 164/4/3 159/4/3 158/4/3
f 164/1/3 158/1/3 163/1/3
f 165/3/3 163/3/3 162/3/3
f 166/3/3 163/3/3 165/3/3
f 167/4/3 159/4/3 164/4/3
f 167/4/3 164/4/3 163/4/3
f 170/3/3 163/3/3 166/3/3
f 171/4/3 167/4/3 163/4/3
f 171/1/3 168/1/3 167/1/3
f 172/1/3 168/1/3 171/1/3
f 173/3/3 170/3/3 169/3/3
f 174/3/3 163/3/3 170/3/3
f 174/3/3 170/3/3 173/3/3
f 174/4/3 171/4/3 163/4/3
f 175/4/3 171/4/3 174/4/3
f 176/1/3 175/1/3 174/1/3
f 177/4/3 171/4/3 175/4/3
f 177/1/3 175/1/3 176/1/3
f 178/4/3 171/4/3 177/4/3
f 181/1/3 180/1/3 179/1/3
f 182/1/3 180/1/3 181/1/3
f 185/6/3 184/6/3 183/6/3
f 186/6/3 184/6/3 185/6/3
f 187/2/4 188/2/4 189/2/4
f 189/2/4 188/2/4 190/2/4
f 191/1/4 192/1/4 193/1/4
f 193/1/4 192/1/4 194/1/4
f 195/2/4 196/2/4 197/2/4
f 197/2/4 196/2/4 198/2/4
f 199/2/4 200/2/4 203/2/4
f 203/2/4 200/2/4 204/2/4
f 201/1/4 202/1/4 205/1/4
f 205/1/4 202/1/4 206/1/4
f 207/1/4 208/1/4 212/1/4
f 208/4/4 209/4/4 213/4/4
f 212/1/4 208/1/4 213/1/4
f 210/6/4 211/6/4 214/6/4
f 211/3/4 212/3/4 215/3/4
f 214/6/4 211/6/4 215/6/4
f 215/3/4 212/3/4 216/3/4
f 213/4/4 209/4/4 217/4/4
f 212/4/4 213/4/4 217/4/4
f 216/3/4 212/3/4 220/3/4
f 212/4/4 217/4/4 221/4/4
f 217/1/4 218/1/4 221/1/4
f 221/1/4 218/1/4 222/1/4
f 219/3/4 220/3/4 223/3/4
f 220/3/4 212/3/4 224/3/4
f 223/3/4 220/3/4 224/3/4
f 212/4/4 221/4/4 224/4/4
f 224/4/4 221/4/4 225/4/4
f 224/1/4 225/1/4 226/1/4
f 225/4/4 221/4/4 227/4/4
f 226/1/4 225/1/4 227/1/4
f 227/4/4 221/4/4 228/4/4
f 229/2/4 230/2/4 231/2/4
f 231/2/4 230/2/4 232/2/4
f 232/2/4 233/2/4 235/2/4
f 235/2/4 233/2/4 236/2/4
f 234/2/4 235/2/4 237/2/4
f 237/2/4 235/2/4 238/2/4
f 239/2/4 240/2/4 241/2/4
f 243/6/4 244/6/4 245/6/4
f 245/6/4 244/6/4 246/6/4
f 239/2/4 241/2/4 247/2/4
f 241/2/4 242/2/4 247/2/4
f 247/2/4 242/2/4 248/2/4
f 239/2/4 247/2/4 249/2/4
f 249/2/4 247/2/4 250/2/4
f 253/6/5 252/6/5 251/6/5
f 254/6/5 252/6/5 253/6/5
f 257/6/5 256/6/5 255/6/5
f 258/6/5 256/6/5 257/6/5
f 261/3/5 260/3/5 259/3/5
f 262/3/5 260/3/5 261/3/5
f 265/3/5 264/3/5 263/3/5
f 266/3/5 264/3/5 265/3/5
f 271/1/5 268/1/5 267/1/5
f 272/1/5 268/1/5 271/1/5
f 273/1/5 270/1/5 269/1/5
f 274/1/5 270/1/5 273/1/5
f 277/1/5 276/1/5 275/1/5
f 278/1/5 276/1/5 277/1/5
f 279/1/5 277/1/5 275/1/5
f 280/1/5 276/1/5 278/1/5
f 281/1/5 279/1/5 275/1/5
f 281/1/5 280/1/5 279/1/5
f 282/1/5 276/1/5 280/1/5
f 282/1/5 280/1/5 281/1/5
f 283/2/5 282/2/5 281/2/5
f 284/2/5 282/2/5 283/2/5
f 289/1/5 286/1/5 285/1/5
f 290/1/5 286/1/5 289/1/5
f 291/1/5 288/1/5 287/1/5
f 292/1/5 288/1/5 291/1/5
f 295/2/5 294/2/5 293/2/5
f 296/2/5 294/2/5 295/2/5
f 297/6/6 298/6/6 299/6/6
f 299/6/6 298/6/6 300/6/6
f 301/3/6 302/3/6 303/3/6
f 303/3/6 302/3/6 304/3/6
f 303/6/6 304/6/6 305/6/6
f 305/6/6 304/6/6 306/6/6
f 307/4/6 308/4/6 311/4/6
f 311/4/6 308/4/6 312/4/6
f 309/4/6 310/4/6 313/4/6
f 313/4/6 310/4/6 314/4/6
f 315/1/6 316/1/6 319/1/6
f 319/1/6 316/1/6 320/1/6
f 317/1/6 318/1/6 321/1/6
f 321/1/6 318/1/6 322/1/6
f 323/2/6 324/2/6 327/2/6
f 327/2/6 324/2/6 328/2/6
f 325/2/6 326/2/6 329/2/6
f 329/2/6 326/2/6 330/2/6
f 333/5/6 334/5/6 335/5/6
f 335/5/6 334/5/6 336/5/6
f 331/2/6 332/2/6 337/2/6
f 337/2/6 332/2/6 338/2/6
f 335/2/6 336/2/6 339/2/6
f 339/2/6 336/2/6 340/2/6
f 338/2/6 339/2/6 341/2/6
f 341/2/6 339/2/6 342/2/6
f 343/2/6 344/2/6 347/2/6
f 345/2/6 346/2/6 348/2/6
f 348/2/6 346/2/6 349/2/6
f 347/2/6 348/2/6 350/2/6
f 348/5/6 349/5/6 350/5/6
f 350/5/6 349/5/6 351/5/6
f 343/2/6 347/2/6 352/2/6
f 347/2/6 350/2/6 352/2/6
f 350/2/6 351/2/6 352/2/6
f 352/2/6 351/2/6 353/2/6
f 353/2/6 351/2/6 354/2/6
f 354/2/6 351/2/6 355/2/6
f 353/2/6 354/2/6 356/2/6
f 356/2/6 354/2/6 357/2/6
f 358/2/6 359/2/6 360/2/6
f 360/2/6 359/2/6 361/2/6
