# MagicaVoxel @ Ephtracy

# group
o 

# material
mtllib hunter_v0_walk_2.mtl
usemtl palette

# normals
vn -1 0 0
vn 1 0 0
vn 0 0 1
vn 0 0 -1
vn 0 -1 0
vn 0 1 0

# texcoords
vt 0.0839844 0.5
vt 0.279297 0.5
vt 0.498047 0.5
vt 0.591797 0.5
vt 0.771484 0.5
vt 0.955078 0.5
vt 0.990234 0.5

# verts
v -0.4 1.5 0.1
v -0.4 1.5 5.96046e-08
v -0.4 1.7 0.1
v -0.4 1.7 5.96046e-08
v -0.3 0.6 0.1
v -0.3 0.6 -0.1
v -0.3 0.7 0.1
v -0.3 0.7 -0.1
v -0.3 1.2 0.1
v -0.3 1.2 -0.1
v -0.3 1.3 0.3
v -0.3 1.3 -0.2
v -0.3 1.3 -0.3
v -0.3 1.4 5.96046e-08
v -0.3 1.4 -0.2
v -0.3 1.5 0.1
v -0.3 1.5 5.96046e-08
v -0.3 1.7 0.2
v -0.3 1.7 0.1
v -0.3 1.7 5.96046e-08
v -0.3 1.8 0.3
v -0.3 1.8 0.2
v -0.3 1.8 -0.2
v -0.3 1.8 -0.3
v -0.3 1.9 5.96046e-08
v -0.3 1.9 -0.2
v -0.3 2 0.3
v -0.3 2 5.96046e-08
v -0.2 0 0.2
v -0.2 0 -0.1
v -0.2 0.1 0.2
v -0.2 0.1 0.1
v -0.2 0.1 -0.1
v -0.2 0.6 0.1
v -0.2 0.6 -0.1
v -0.2 1.8 -0.2
v -0.2 1.8 -0.3
v -0.2 1.9 0.4
v -0.2 1.9 0.3
v -0.2 1.9 5.96046e-08
v -0.2 1.9 -0.2
v -0.2 1.9 -0.3
v -0.2 2 0.3
v -0.2 2 0.2
v -0.2 2 5.96046e-08
v -0.2 2 -0.2
v -0.2 2.1 0.4
v -0.2 2.1 0.2
v -0.1 1.2 0.1
v -0.1 1.2 -0.1
v -0.1 1.3 0.1
v -0.1 1.3 -0.1
v 0.1 0.2 0.4
v 0.1 0.2 0.1
v 0.1 0.3 0.4
v 0.1 0.3 0.3
v 0.1 0.3 0.1
v 0.1 0.4 0.1
v 0.1 0.4 -0.1
v 0.1 0.5 0.1
v 0.1 0.5 -0.1
v 0.1 0.6 0.3
v 0.1 0.6 0.1
v -0.1 0 0.2
v -0.1 0 -0.1
v -0.1 0.1 0.2
v -0.1 0.1 0.1
v -0.1 0.1 -0.1
v -0.1 0.5 0.1
v -0.1 0.5 -0.1
v 0.1 1.2 0.1
v 0.1 1.2 -0.1
v 0.1 1.3 0.1
v 0.1 1.3 -0.1
v 0.2 0.2 0.4
v 0.2 0.2 0.1
v 0.2 0.3 0.4
v 0.2 0.3 0.3
v 0.2 0.3 0.1
v 0.2 0.4 0.1
v 0.2 0.4 -0.1
v 0.2 0.6 0.3
v 0.2 0.6 0.1
v 0.2 0.6 -0.1
v 0.2 1.8 -0.2
v 0.2 1.8 -0.3
v 0.2 1.9 0.4
v 0.2 1.9 0.3
v 0.2 1.9 5.96046e-08
v 0.2 1.9 -0.1
v 0.2 1.9 -0.2
v 0.2 1.9 -0.3
v 0.2 2 0.3
v 0.2 2 0.2
v 0.2 2 5.96046e-08
v 0.2 2 -0.2
v 0.2 2.1 0.4
v 0.2 2.1 0.2
v 0.3 0.6 0.1
v 0.3 0.6 -0.1
v 0.3 0.7 0.1
v 0.3 0.7 -0.1
v 0.3 1.2 0.1
v 0.3 1.2 -0.1
v 0.3 1.3 0.3
v 0.3 1.3 -0.2
v 0.3 1.3 -0.3
v 0.3 1.4 5.96046e-08
v 0.3 1.4 -0.2
v 0.3 1.5 0.1
v 0.3 1.5 5.96046e-08
v 0.3 1.7 0.2
v 0.3 1.7 0.1
v 0.3 1.7 5.96046e-08
v 0.3 1.7 -0.1
v 0.3 1.8 0.3
v 0.3 1.8 0.2
v 0.3 1.8 0.1
v 0.3 1.8 -0.2
v 0.3 1.8 -0.3
v 0.3 1.9 5.96046e-08
v 0.3 1.9 -0.1
v 0.3 1.9 -0.2
v 0.3 2 0.3
v 0.3 2 0.2
v 0.3 2 0.1
v 0.3 2 5.96046e-08
v 0.4 1.5 0.1
v 0.4 1.5 5.96046e-08
v 0.4 1.7 0.1
v 0.4 1.7 5.96046e-08
v -0.2 1.9 0.4
v -0.2 2.1 0.4
v 0.1 0.2 0.4
v 0.1 0.3 0.4
v 0.2 0.2 0.4
v 0.2 0.3 0.4
v 0.2 1.9 0.4
v 0.2 2.1 0.4
v -0.3 1.3 0.3
v -0.3 1.8 0.3
v -0.3 2 0.3
v -0.2 1.5 0.3
v -0.2 1.7 0.3
v -0.2 1.9 0.3
v -0.2 2 0.3
v -0.1 1.5 0.3
v -0.1 1.7 0.3
v 0.1 0.3 0.3
v 0.1 0.6 0.3
v 0.1 1.5 0.3
v 0.1 1.7 0.3
v 0.2 0.3 0.3
v 0.2 0.6 0.3
v 0.2 1.5 0.3
v 0.2 1.7 0.3
v 0.2 1.9 0.3
v 0.2 2 0.3
v 0.3 1.3 0.3
v 0.3 1.8 0.3
v 0.3 2 0.3
v -0.2 0 0.2
v -0.2 0.1 0.2
v -0.1 0 0.2
v -0.1 0.1 0.2
v -0.4 1.5 0.1
v -0.4 1.7 0.1
v -0.3 0.6 0.1
v -0.3 0.7 0.1
v -0.3 1.2 0.1
v -0.3 1.5 0.1
v -0.3 1.7 0.1
v -0.2 0.1 0.1
v -0.2 0.6 0.1
v -0.2 0.7 0.1
v -0.1 0.1 0.1
v -0.1 0.5 0.1
v -0.1 1.2 0.1
v -0.1 1.3 0.1
v 0.1 0.5 0.1
v 0.1 0.6 0.1
v 0.1 1.2 0.1
v 0.1 1.3 0.1
v 0.2 0.6 0.1
v 0.2 0.7 0.1
v 0.3 0.6 0.1
v 0.3 0.7 0.1
v 0.3 1.2 0.1
v 0.3 1.5 0.1
v 0.3 1.7 0.1
v 0.4 1.5 0.1
v 0.4 1.7 0.1
v -0.2 2 0.2
v -0.2 2.1 0.2
v 0.2 2 0.2
v 0.2 2.1 0.2
v 0.1 0.2 0.1
v 0.1 0.3 0.1
v 0.1 0.4 0.1
v 0.2 0.2 0.1
v 0.2 0.3 0.1
v 0.2 0.4 0.1
v -0.4 1.5 5.96046e-08
v -0.4 1.7 5.96046e-08
v -0.3 1.5 5.96046e-08
v -0.3 1.7 5.96046e-08
v -0.3 1.9 5.96046e-08
v -0.3 2 5.96046e-08
v -0.2 1.9 5.96046e-08
v -0.2 2 5.96046e-08
v 0.2 1.9 5.96046e-08
v 0.2 2 5.96046e-08
v 0.3 1.5 5.96046e-08
v 0.3 1.7 5.96046e-08
v 0.3 1.9 5.96046e-08
v 0.3 2 5.96046e-08
v 0.4 1.5 5.96046e-08
v 0.4 1.7 5.96046e-08
v -0.3 0.6 -0.1
v -0.3 0.7 -0.1
v -0.3 1.2 -0.1
v -0.2 0 -0.1
v -0.2 0.1 -0.1
v -0.2 0.6 -0.1
v -0.2 0.7 -0.1
v -0.1 0 -0.1
v -0.1 0.1 -0.1
v -0.1 0.5 -0.1
v -0.1 1.2 -0.1
v -0.1 1.3 -0.1
v 0.1 0.4 -0.1
v 0.1 0.5 -0.1
v 0.1 1.2 -0.1
v 0.1 1.3 -0.1
v 0.2 0.4 -0.1
v 0.2 0.6 -0.1
v 0.2 0.7 -0.1
v 0.3 0.6 -0.1
v 0.3 0.7 -0.1
v 0.3 1.2 -0.1
v -0.3 1.8 -0.2
v -0.3 1.9 -0.2
v -0.2 1.8 -0.2
v -0.2 1.9 -0.2
v -0.2 2 -0.2
v 0.2 1.8 -0.2
v 0.2 1.9 -0.2
v 0.2 2 -0.2
v 0.3 1.8 -0.2
v 0.3 1.9 -0.2
v -0.3 1.3 -0.3
v -0.3 1.8 -0.3
v -0.2 1.8 -0.3
v -0.2 1.9 -0.3
v 0.2 1.8 -0.3
v 0.2 1.9 -0.3
v 0.3 1.3 -0.3
v 0.3 1.8 -0.3
v -0.2 0 0.2
v -0.1 0 0.2
v -0.2 0 -0.1
v -0.1 0 -0.1
v 0.1 0.2 0.4
v 0.2 0.2 0.4
v 0.1 0.2 0.1
v 0.2 0.2 0.1
v 0.1 0.4 0.1
v 0.2 0.4 0.1
v 0.1 0.4 -0.1
v 0.2 0.4 -0.1
v -0.1 0.5 0.1
v 0.1 0.5 0.1
v -0.1 0.5 -0.1
v 0.1 0.5 -0.1
v -0.3 0.6 0.1
v -0.2 0.6 0.1
v 0.2 0.6 0.1
v 0.3 0.6 0.1
v -0.3 0.6 -0.1
v -0.2 0.6 -0.1
v 0.2 0.6 -0.1
v 0.3 0.6 -0.1
v -0.3 1.3 0.3
v 0.3 1.3 0.3
v -0.1 1.3 0.1
v 0.1 1.3 0.1
v -0.1 1.3 -0.1
v 0.1 1.3 -0.1
v -0.3 1.3 -0.2
v 0.3 1.3 -0.2
v -0.3 1.3 -0.3
v 0.3 1.3 -0.3
v -0.4 1.5 0.1
v -0.3 1.5 0.1
v 0.3 1.5 0.1
v 0.4 1.5 0.1
v -0.4 1.5 5.96046e-08
v -0.3 1.5 5.96046e-08
v 0.3 1.5 5.96046e-08
v 0.4 1.5 5.96046e-08
v -0.2 1.9 0.4
v 0.2 1.9 0.4
v -0.2 1.9 0.3
v 0.2 1.9 0.3
v -0.2 0.1 0.2
v -0.1 0.1 0.2
v -0.2 0.1 0.1
v -0.1 0.1 0.1
v 0.1 0.3 0.4
v 0.2 0.3 0.4
v 0.1 0.3 0.3
v 0.2 0.3 0.3
v 0.1 0.6 0.3
v 0.2 0.6 0.3
v 0.1 0.6 0.1
v 0.2 0.6 0.1
v -0.3 1.2 0.1
v -0.1 1.2 0.1
v 0.1 1.2 0.1
v 0.3 1.2 0.1
v -0.3 1.2 -0.1
v -0.1 1.2 -0.1
v 0.1 1.2 -0.1
v 0.3 1.2 -0.1
v -0.4 1.7 0.1
v -0.3 1.7 0.1
v 0.3 1.7 0.1
v 0.4 1.7 0.1
v -0.4 1.7 5.96046e-08
v -0.3 1.7 5.96046e-08
v 0.3 1.7 5.96046e-08
v 0.4 1.7 5.96046e-08
v -0.3 1.8 -0.2
v -0.2 1.8 -0.2
v 0.2 1.8 -0.2
v 0.3 1.8 -0.2
v -0.3 1.8 -0.3
v -0.2 1.8 -0.3
v 0.2 1.8 -0.3
v 0.3 1.8 -0.3
v -0.3 1.9 5.96046e-08
v -0.2 1.9 5.96046e-08
v 0.2 1.9 5.96046e-08
v 0.3 1.9 5.96046e-08
v 0.2 1.9 -0.1
v 0.3 1.9 -0.1
v -0.3 1.9 -0.2
v -0.2 1.9 -0.2
v 0.2 1.9 -0.2
v 0.3 1.9 -0.2
v -0.2 1.9 -0.3
v 0.2 1.9 -0.3
v -0.3 2 0.3
v -0.2 2 0.3
v 0.2 2 0.3
v 0.3 2 0.3
v -0.2 2 0.2
v 0.2 2 0.2
v 0.3 2 0.2
v 0.2 2 0.1
v 0.3 2 0.1
v -0.3 2 5.96046e-08
v -0.2 2 5.96046e-08
v 0.2 2 5.96046e-08
v 0.3 2 5.96046e-08
v -0.2 2 -0.2
v 0.2 2 -0.2
v -0.2 2.1 0.4
v 0.2 2.1 0.4
v -0.2 2.1 0.2
v 0.2 2.1 0.2

# faces
f 3/1/1 2/1/1 1/1/1
f 4/1/1 2/1/1 3/1/1
f 7/1/1 6/1/1 5/1/1
f 8/1/1 6/1/1 7/1/1
f 9/4/1 8/4/1 7/4/1
f 10/4/1 8/4/1 9/4/1
f 14/1/1 12/1/1 11/1/1
f 15/2/1 13/2/1 12/2/1
f 15/1/1 12/1/1 14/1/1
f 16/1/1 14/1/1 11/1/1
f 17/2/1 15/2/1 14/2/1
f 17/1/1 14/1/1 16/1/1
f 18/1/1 16/1/1 11/1/1
f 19/1/1 16/1/1 18/1/1
f 20/2/1 15/2/1 17/2/1
f 21/1/1 18/1/1 11/1/1
f 22/2/1 19/2/1 18/2/1
f 22/1/1 18/1/1 21/1/1
f 22/2/1 20/2/1 19/2/1
f 23/2/1 13/2/1 15/2/1
f 23/2/1 20/2/1 22/2/1
f 23/2/1 15/2/1 20/2/1
f 24/2/1 13/2/1 23/2/1
f 25/2/1 22/2/1 21/2/1
f 25/2/1 23/2/1 22/2/1
f 26/2/1 23/2/1 25/2/1
f 27/2/1 25/2/1 21/2/1
f 28/2/1 25/2/1 27/2/1
f 31/6/1 30/6/1 29/6/1
f 32/6/1 30/6/1 31/6/1
f 33/6/1 30/6/1 32/6/1
f 34/3/1 33/3/1 32/3/1
f 35/3/1 33/3/1 34/3/1
f 41/2/1 37/2/1 36/2/1
f 42/2/1 37/2/1 41/2/1
f 43/2/1 39/2/1 38/2/1
f 45/2/1 41/2/1 40/2/1
f 46/2/1 41/2/1 45/2/1
f 47/2/1 44/2/1 43/2/1
f 47/2/1 43/2/1 38/2/1
f 48/2/1 44/2/1 47/2/1
f 51/1/1 50/1/1 49/1/1
f 52/1/1 50/1/1 51/1/1
f 55/6/1 54/6/1 53/6/1
f 56/6/1 54/6/1 55/6/1
f 57/6/1 54/6/1 56/6/1
f 58/3/1 57/3/1 56/3/1
f 60/3/1 58/3/1 56/3/1
f 60/3/1 59/3/1 58/3/1
f 61/3/1 59/3/1 60/3/1
f 62/3/1 60/3/1 56/3/1
f 63/3/1 60/3/1 62/3/1
f 64/6/2 65/6/2 66/6/2
f 66/6/2 65/6/2 67/6/2
f 67/6/2 65/6/2 68/6/2
f 67/3/2 68/3/2 69/3/2
f 69/3/2 68/3/2 70/3/2
f 71/1/2 72/1/2 73/1/2
f 73/1/2 72/1/2 74/1/2
f 75/6/2 76/6/2 77/6/2
f 77/6/2 76/6/2 78/6/2
f 78/6/2 76/6/2 79/6/2
f 78/3/2 79/3/2 80/3/2
f 78/3/2 80/3/2 82/3/2
f 80/3/2 81/3/2 82/3/2
f 82/3/2 81/3/2 83/3/2
f 83/3/2 81/3/2 84/3/2
f 85/2/2 86/2/2 91/2/2
f 91/2/2 86/2/2 92/2/2
f 87/2/2 88/2/2 93/2/2
f 89/2/2 90/2/2 95/2/2
f 90/2/2 91/2/2 95/2/2
f 95/2/2 91/2/2 96/2/2
f 93/2/2 94/2/2 97/2/2
f 87/2/2 93/2/2 97/2/2
f 97/2/2 94/2/2 98/2/2
f 99/1/2 100/1/2 101/1/2
f 101/1/2 100/1/2 102/1/2
f 101/4/2 102/4/2 103/4/2
f 103/4/2 102/4/2 104/4/2
f 105/1/2 106/1/2 108/1/2
f 106/2/2 107/2/2 109/2/2
f 108/1/2 106/1/2 109/1/2
f 105/1/2 108/1/2 110/1/2
f 108/2/2 109/2/2 111/2/2
f 110/1/2 108/1/2 111/1/2
f 105/1/2 110/1/2 112/1/2
f 112/1/2 110/1/2 113/1/2
f 111/2/2 109/2/2 114/2/2
f 114/2/2 109/2/2 115/2/2
f 105/1/2 112/1/2 116/1/2
f 112/2/2 113/2/2 117/2/2
f 116/1/2 112/1/2 117/1/2
f 113/2/2 114/2/2 117/2/2
f 117/2/2 114/2/2 118/2/2
f 109/2/2 107/2/2 119/2/2
f 115/2/2 109/2/2 119/2/2
f 119/2/2 107/2/2 120/2/2
f 118/2/2 114/2/2 121/2/2
f 114/5/2 115/5/2 121/5/2
f 115/2/2 119/2/2 122/2/2
f 121/5/2 115/5/2 122/5/2
f 122/2/2 119/2/2 123/2/2
f 116/2/2 117/2/2 124/2/2
f 117/5/2 118/5/2 125/5/2
f 124/2/2 117/2/2 125/2/2
f 118/2/2 121/2/2 126/2/2
f 125/5/2 118/5/2 126/5/2
f 126/2/2 121/2/2 127/2/2
f 128/1/2 129/1/2 130/1/2
f 130/1/2 129/1/2 131/1/2
f 136/6/3 135/6/3 134/6/3
f 137/6/3 135/6/3 136/6/3
f 138/2/3 133/2/3 132/2/3
f 139/2/3 133/2/3 138/2/3
f 143/1/3 141/1/3 140/1/3
f 144/1/3 141/1/3 143/1/3
f 145/2/3 142/2/3 141/2/3
f 146/2/3 142/2/3 145/2/3
f 147/1/3 143/1/3 140/1/3
f 147/7/3 144/7/3 143/7/3
f 148/1/3 141/1/3 144/1/3
f 148/7/3 144/7/3 147/7/3
f 151/1/3 147/1/3 140/1/3
f 151/1/3 148/1/3 147/1/3
f 152/1/3 141/1/3 148/1/3
f 152/1/3 148/1/3 151/1/3
f 153/3/3 150/3/3 149/3/3
f 154/3/3 150/3/3 153/3/3
f 155/1/3 151/1/3 140/1/3
f 155/7/3 152/7/3 151/7/3
f 156/1/3 141/1/3 152/1/3
f 156/7/3 152/7/3 155/7/3
f 157/2/3 145/2/3 141/2/3
f 159/1/3 155/1/3 140/1/3
f 159/1/3 156/1/3 155/1/3
f 160/2/3 158/2/3 157/2/3
f 160/1/3 156/1/3 159/1/3
f 160/1/3 141/1/3 156/1/3
f 160/2/3 157/2/3 141/2/3
f 161/2/3 158/2/3 160/2/3
f 164/6/3 163/6/3 162/6/3
f 165/6/3 163/6/3 164/6/3
f 171/1/3 167/1/3 166/1/3
f 172/1/3 167/1/3 171/1/3
f 174/1/3 169/1/3 168/1/3
f 175/4/3 170/4/3 169/4/3
f 175/1/3 169/1/3 174/1/3
f 176/3/3 174/3/3 173/3/3
f 177/3/3 174/3/3 176/3/3
f 178/4/3 170/4/3 175/4/3
f 178/4/3 175/4/3 174/4/3
f 180/3/3 174/3/3 177/3/3
f 181/4/3 178/4/3 174/4/3
f 181/3/3 174/3/3 180/3/3
f 182/1/3 179/1/3 178/1/3
f 182/4/3 178/4/3 181/4/3
f 183/1/3 179/1/3 182/1/3
f 184/4/3 182/4/3 181/4/3
f 185/4/3 182/4/3 184/4/3
f 186/1/3 185/1/3 184/1/3
f 187/4/3 182/4/3 185/4/3
f 187/1/3 185/1/3 186/1/3
f 188/4/3 182/4/3 187/4/3
f 191/1/3 190/1/3 189/1/3
f 192/1/3 190/1/3 191/1/3
f 193/2/4 194/2/4 195/2/4
f 195/2/4 194/2/4 196/2/4
f 197/6/4 198/6/4 200/6/4
f 198/3/4 199/3/4 201/3/4
f 200/6/4 198/6/4 201/6/4
f 201/3/4 199/3/4 202/3/4
f 203/1/4 204/1/4 205/1/4
f 205/1/4 204/1/4 206/1/4
f 207/2/4 208/2/4 209/2/4
f 209/2/4 208/2/4 210/2/4
f 211/2/4 212/2/4 215/2/4
f 215/2/4 212/2/4 216/2/4
f 213/1/4 214/1/4 217/1/4
f 217/1/4 214/1/4 218/1/4
f 219/1/4 220/1/4 224/1/4
f 220/4/4 221/4/4 225/4/4
f 224/1/4 220/1/4 225/1/4
f 222/6/4 223/6/4 226/6/4
f 223/3/4 224/3/4 227/3/4
f 226/6/4 223/6/4 227/6/4
f 227/3/4 224/3/4 228/3/4
f 225/4/4 221/4/4 229/4/4
f 224/4/4 225/4/4 229/4/4
f 228/3/4 224/3/4 232/3/4
f 224/4/4 229/4/4 233/4/4
f 229/1/4 230/1/4 233/1/4
f 233/1/4 230/1/4 234/1/4
f 231/3/4 232/3/4 235/3/4
f 232/3/4 224/3/4 236/3/4
f 235/3/4 232/3/4 236/3/4
f 224/4/4 233/4/4 236/4/4
f 236/4/4 233/4/4 237/4/4
f 236/1/4 237/1/4 238/1/4
f 237/4/4 233/4/4 239/4/4
f 238/1/4 237/1/4 239/1/4
f 239/4/4 233/4/4 240/4/4
f 241/2/4 242/2/4 243/2/4
f 243/2/4 242/2/4 244/2/4
f 244/2/4 245/2/4 247/2/4
f 247/2/4 245/2/4 248/2/4
f 246/2/4 247/2/4 249/2/4
f 249/2/4 247/2/4 250/2/4
f 251/2/4 252/2/4 253/2/4
f 251/2/4 253/2/4 255/2/4
f 253/2/4 254/2/4 255/2/4
f 255/2/4 254/2/4 256/2/4
f 251/2/4 255/2/4 257/2/4
f 257/2/4 255/2/4 258/2/4
f 261/6/5 260/6/5 259/6/5
f 262/6/5 260/6/5 261/6/5
f 265/6/5 264/6/5 263/6/5
f 266/6/5 264/6/5 265/6/5
f 269/3/5 268/3/5 267/3/5
f 270/3/5 268/3/5 269/3/5
f 273/3/5 272/3/5 271/3/5
f 274/3/5 272/3/5 273/3/5
f 279/1/5 276/1/5 275/1/5
f 280/1/5 276/1/5 279/1/5
f 281/1/5 278/1/5 277/1/5
f 282/1/5 278/1/5 281/1/5
f 285/1/5 284/1/5 283/1/5
f 286/1/5 284/1/5 285/1/5
f 287/1/5 285/1/5 283/1/5
f 288/1/5 284/1/5 286/1/5
f 289/1/5 287/1/5 283/1/5
f 289/1/5 288/1/5 287/1/5
f 290/1/5 284/1/5 288/1/5
f 290/1/5 288/1/5 289/1/5
f 291/2/5 290/2/5 289/2/5
f 292/2/5 290/2/5 291/2/5
f 297/1/5 294/1/5 293/1/5
f 298/1/5 294/1/5 297/1/5
f 299/1/5 296/1/5 295/1/5
f 300/1/5 296/1/5 299/1/5
f 303/2/5 302/2/5 301/2/5
f 304/2/5 302/2/5 303/2/5
f 305/6/6 306/6/6 307/6/6
f 307/6/6 306/6/6 308/6/6
f 309/6/6 310/6/6 311/6/6
f 311/6/6 310/6/6 312/6/6
f 313/3/6 314/3/6 315/3/6
f 315/3/6 314/3/6 316/3/6
f 317/4/6 318/4/6 321/4/6
f 321/4/6 318/4/6 322/4/6
f 319/4/6 320/4/6 323/4/6
f 323/4/6 320/4/6 324/4/6
f 325/1/6 326/1/6 329/1/6
f 329/1/6 326/1/6 330/1/6
f 327/1/6 328/1/6 331/1/6
f 331/1/6 328/1/6 332/1/6
f 333/2/6 334/2/6 337/2/6
f 337/2/6 334/2/6 338/2/6
f 335/2/6 336/2/6 339/2/6
f 339/2/6 336/2/6 340/2/6
f 343/5/6 344/5/6 345/5/6
f 345/5/6 344/5/6 346/5/6
f 341/2/6 342/2/6 347/2/6
f 347/2/6 342/2/6 348/2/6
f 345/2/6 346/2/6 349/2/6
f 349/2/6 346/2/6 350/2/6
f 348/2/6 349/2/6 351/2/6
f 351/2/6 349/2/6 352/2/6
f 353/2/6 354/2/6 357/2/6
f 355/2/6 356/2/6 358/2/6
f 358/2/6 356/2/6 359/2/6
f 357/2/6 358/2/6 360/2/6
f 358/5/6 359/5/6 360/5/6
f 360/5/6 359/5/6 361/5/6
f 353/2/6 357/2/6 362/2/6
f 357/2/6 360/2/6 362/2/6
f 360/2/6 361/2/6 362/2/6
f 362/2/6 361/2/6 363/2/6
f 363/2/6 361/2/6 364/2/6
f 364/2/6 361/2/6 365/2/6
f 363/2/6 364/2/6 366/2/6
f 366/2/6 364/2/6 367/2/6
f 368/2/6 369/2/6 370/2/6
f 370/2/6 369/2/6 371/2/6
