# MagicaVoxel @ Ephtracy

# group
o 

# material
mtllib hunter_v0_strike1.mtl
usemtl palette

# normals
vn -1 0 0
vn 1 0 0
vn 0 0 1
vn 0 0 -1
vn 0 -1 0
vn 0 1 0

# texcoords
vt 0.0839844 0.5
vt 0.279297 0.5
vt 0.498047 0.5
vt 0.591797 0.5
vt 0.771484 0.5
vt 0.955078 0.5
vt 0.990234 0.5

# verts
v -0.4 1.5 0.3
v -0.4 1.5 0.2
v -0.4 1.7 0.3
v -0.4 1.7 0.2
v -0.3 0.8 0.6
v -0.3 0.8 0.5
v -0.3 0.8 0.2
v -0.3 0.9 0.2
v -0.3 0.9 0.0999999
v -0.3 1 0.6
v -0.3 1 0.5
v -0.3 1 0.2
v -0.3 1 0.0999999
v -0.3 1 -5.96046e-08
v -0.3 1.2 0.2
v -0.3 1.2 -5.96046e-08
v -0.3 1.3 0.5
v -0.3 1.3 -5.96046e-08
v -0.3 1.3 -0.1
v -0.3 1.4 0.2
v -0.3 1.4 -5.96046e-08
v -0.3 1.5 0.3
v -0.3 1.5 0.2
v -0.3 1.7 0.4
v -0.3 1.7 0.3
v -0.3 1.7 0.2
v -0.3 1.8 0.5
v -0.3 1.8 0.4
v -0.3 1.8 -5.96046e-08
v -0.3 1.8 -0.1
v -0.3 1.9 0.2
v -0.3 1.9 -5.96046e-08
v -0.3 2 0.5
v -0.3 2 0.2
v -0.2 0.2 -0.3
v -0.2 0.2 -0.4
v -0.2 0.3 0.0999999
v -0.2 0.3 -0.3
v -0.2 0.5 -0.1
v -0.2 0.5 -0.3
v -0.2 0.5 -0.4
v -0.2 0.6 0.0999999
v -0.2 0.6 -0.1
v -0.2 0.8 0.2
v -0.2 0.8 0.0999999
v -0.2 0.8 -5.96046e-08
v -0.2 0.8 -0.1
v -0.2 0.9 0.2
v -0.2 0.9 0.0999999
v -0.2 1 0.0999999
v -0.2 1 -5.96046e-08
v -0.2 1.8 -5.96046e-08
v -0.2 1.8 -0.1
v -0.2 1.9 0.6
v -0.2 1.9 0.5
v -0.2 1.9 0.2
v -0.2 1.9 -5.96046e-08
v -0.2 1.9 -0.1
v -0.2 2 0.5
v -0.2 2 0.4
v -0.2 2 0.2
v -0.2 2 -5.96046e-08
v -0.2 2.1 0.6
v -0.2 2.1 0.4
v -0.1 0.7 0.2
v -0.1 0.7 0.0999999
v -0.1 0.8 0.2
v -0.1 0.8 0.0999999
v -0.1 0.8 -5.96046e-08
v -0.1 0.8 -0.1
v -0.1 0.9 -5.96046e-08
v -0.1 0.9 -0.1
v -0.1 1.2 0.3
v -0.1 1.2 0.2
v -0.1 1.2 0.0999999
v -0.1 1.3 0.3
v -0.1 1.3 0.0999999
v 0.1 0 0.2
v 0.1 0 -0.1
v 0.1 0.1 0.2
v 0.1 0.1 0.0999999
v 0.1 0.1 -0.1
v 0.1 0.5 0.0999999
v 0.1 0.5 -0.1
v 0.2 0.9 -5.96046e-08
v 0.2 0.9 -0.2
v 0.2 0.9 -0.3
v 0.2 1.1 -5.96046e-08
v 0.2 1.1 -0.2
v 0.2 1.1 -0.3
v -0.2 0.8 0.6
v -0.2 0.8 0.5
v -0.2 0.8 0.2
v -0.2 1 0.6
v -0.2 1 0.5
v -0.2 1 0.2
v -0.1 0.2 -0.3
v -0.1 0.2 -0.4
v -0.1 0.3 0.0999999
v -0.1 0.3 -0.3
v -0.1 0.5 0.0999999
v -0.1 0.5 -0.1
v -0.1 0.5 -0.3
v -0.1 0.5 -0.4
v 0.1 0.7 0.2
v 0.1 0.7 0.0999999
v 0.1 0.8 0.2
v 0.1 0.8 0.0999999
v 0.1 0.8 -5.96046e-08
v 0.1 0.8 -0.1
v 0.1 0.9 -5.96046e-08
v 0.1 0.9 -0.1
v 0.1 1.2 0.3
v 0.1 1.2 0.2
v 0.1 1.2 0.0999999
v 0.1 1.3 0.3
v 0.1 1.3 0.0999999
v 0.2 0 0.2
v 0.2 0 -0.1
v 0.2 0.1 0.2
v 0.2 0.1 0.0999999
v 0.2 0.1 -0.1
v 0.2 0.6 0.0999999
v 0.2 0.6 -0.1
v 0.2 0.8 0.2
v 0.2 0.8 0.0999999
v 0.2 0.8 -5.96046e-08
v 0.2 0.8 -0.1
v 0.2 0.9 0.0999999
v 0.2 0.9 -5.96046e-08
v 0.2 1 0.2
v 0.2 1 0.0999999
v 0.2 1.8 -5.96046e-08
v 0.2 1.8 -0.1
v 0.2 1.9 0.6
v 0.2 1.9 0.5
v 0.2 1.9 0.2
v 0.2 1.9 0.0999999
v 0.2 1.9 -5.96046e-08
v 0.2 1.9 -0.1
v 0.2 2 0.5
v 0.2 2 0.4
v 0.2 2 0.2
v 0.2 2 -5.96046e-08
v 0.2 2.1 0.6
v 0.2 2.1 0.4
v 0.3 0.9 0.0999999
v 0.3 0.9 -0.2
v 0.3 0.9 -0.3
v 0.3 1 0.2
v 0.3 1 0.0999999
v 0.3 1.1 -5.96046e-08
v 0.3 1.1 -0.2
v 0.3 1.1 -0.3
v 0.3 1.2 0.2
v 0.3 1.2 -5.96046e-08
v 0.3 1.3 0.5
v 0.3 1.3 -5.96046e-08
v 0.3 1.3 -0.1
v 0.3 1.4 0.2
v 0.3 1.4 -5.96046e-08
v 0.3 1.5 0.3
v 0.3 1.5 0.2
v 0.3 1.7 0.4
v 0.3 1.7 0.3
v 0.3 1.7 0.2
v 0.3 1.7 0.0999999
v 0.3 1.8 0.5
v 0.3 1.8 0.4
v 0.3 1.8 0.3
v 0.3 1.8 -5.96046e-08
v 0.3 1.8 -0.1
v 0.3 1.9 0.2
v 0.3 1.9 0.0999999
v 0.3 1.9 -5.96046e-08
v 0.3 2 0.5
v 0.3 2 0.4
v 0.3 2 0.3
v 0.3 2 0.2
v 0.4 1.5 0.3
v 0.4 1.5 0.2
v 0.4 1.7 0.3
v 0.4 1.7 0.2
v -0.3 0.8 0.6
v -0.3 1 0.6
v -0.2 0.8 0.6
v -0.2 1 0.6
v -0.2 1.9 0.6
v -0.2 2.1 0.6
v 0.2 1.9 0.6
v 0.2 2.1 0.6
v -0.3 1.3 0.5
v -0.3 1.8 0.5
v -0.3 2 0.5
v -0.2 1.5 0.5
v -0.2 1.7 0.5
v -0.2 1.9 0.5
v -0.2 2 0.5
v -0.1 1.5 0.5
v -0.1 1.7 0.5
v 0.1 1.5 0.5
v 0.1 1.7 0.5
v 0.2 1.5 0.5
v 0.2 1.7 0.5
v 0.2 1.9 0.5
v 0.2 2 0.5
v 0.3 1.3 0.5
v 0.3 1.8 0.5
v 0.3 2 0.5
v -0.4 1.5 0.3
v -0.4 1.7 0.3
v -0.3 1.5 0.3
v -0.3 1.7 0.3
v -0.1 1.2 0.3
v -0.1 1.3 0.3
v 0.1 1.2 0.3
v 0.1 1.3 0.3
v 0.3 1.5 0.3
v 0.3 1.7 0.3
v 0.4 1.5 0.3
v 0.4 1.7 0.3
v -0.3 1 0.2
v -0.3 1.2 0.2
v -0.2 0.8 0.2
v -0.2 1 0.2
v -0.1 0.7 0.2
v -0.1 0.8 0.2
v -0.1 1.2 0.2
v 0.1 0 0.2
v 0.1 0.1 0.2
v 0.1 0.7 0.2
v 0.1 0.8 0.2
v 0.1 1.2 0.2
v 0.2 0 0.2
v 0.2 0.1 0.2
v 0.2 0.8 0.2
v 0.2 1 0.2
v 0.3 1 0.2
v 0.3 1.2 0.2
v -0.2 0.3 0.0999999
v -0.2 0.6 0.0999999
v -0.2 0.8 0.0999999
v -0.1 0.3 0.0999999
v -0.1 0.5 0.0999999
v -0.1 0.7 0.0999999
v -0.1 0.8 0.0999999
v 0.1 0.1 0.0999999
v 0.1 0.5 0.0999999
v 0.1 0.7 0.0999999
v 0.1 0.8 0.0999999
v 0.2 0.1 0.0999999
v 0.2 0.6 0.0999999
v 0.2 0.8 0.0999999
v 0.2 0.9 0.0999999
v 0.2 1 0.0999999
v 0.3 0.9 0.0999999
v 0.3 1 0.0999999
v -0.2 0.2 -0.3
v -0.2 0.3 -0.3
v -0.1 0.2 -0.3
v -0.1 0.3 -0.3
v -0.2 2 0.4
v -0.2 2.1 0.4
v 0.2 2 0.4
v 0.2 2.1 0.4
v -0.4 1.5 0.2
v -0.4 1.7 0.2
v -0.3 0.8 0.2
v -0.3 0.9 0.2
v -0.3 1.5 0.2
v -0.3 1.7 0.2
v -0.3 1.9 0.2
v -0.3 2 0.2
v -0.2 0.8 0.2
v -0.2 0.9 0.2
v -0.2 1.9 0.2
v -0.2 2 0.2
v 0.2 1.9 0.2
v 0.2 2 0.2
v 0.3 1.5 0.2
v 0.3 1.7 0.2
v 0.3 1.9 0.2
v 0.3 2 0.2
v 0.4 1.5 0.2
v 0.4 1.7 0.2
v -0.3 0.9 0.0999999
v -0.3 1 0.0999999
v -0.2 0.9 0.0999999
v -0.2 1 0.0999999
v -0.1 1.2 0.0999999
v -0.1 1.3 0.0999999
v 0.1 1.2 0.0999999
v 0.1 1.3 0.0999999
v -0.3 1 -5.96046e-08
v -0.3 1.2 -5.96046e-08
v -0.3 1.8 -5.96046e-08
v -0.3 1.9 -5.96046e-08
v -0.2 0.8 -5.96046e-08
v -0.2 1 -5.96046e-08
v -0.2 1.8 -5.96046e-08
v -0.2 1.9 -5.96046e-08
v -0.2 2 -5.96046e-08
v -0.1 0.8 -5.96046e-08
v -0.1 0.9 -5.96046e-08
v 0.1 0.8 -5.96046e-08
v 0.1 0.9 -5.96046e-08
v 0.2 0.8 -5.96046e-08
v 0.2 0.9 -5.96046e-08
v 0.2 1.1 -5.96046e-08
v 0.2 1.8 -5.96046e-08
v 0.2 1.9 -5.96046e-08
v 0.2 2 -5.96046e-08
v 0.3 1.1 -5.96046e-08
v 0.3 1.2 -5.96046e-08
v 0.3 1.8 -5.96046e-08
v 0.3 1.9 -5.96046e-08
v -0.3 1.3 -0.1
v -0.3 1.8 -0.1
v -0.2 0.5 -0.1
v -0.2 0.6 -0.1
v -0.2 0.8 -0.1
v -0.2 1.8 -0.1
v -0.2 1.9 -0.1
v -0.1 0.5 -0.1
v -0.1 0.8 -0.1
v -0.1 0.9 -0.1
v 0.1 0 -0.1
v 0.1 0.1 -0.1
v 0.1 0.5 -0.1
v 0.1 0.8 -0.1
v 0.1 0.9 -0.1
v 0.2 0 -0.1
v 0.2 0.1 -0.1
v 0.2 0.6 -0.1
v 0.2 0.8 -0.1
v 0.2 1.8 -0.1
v 0.2 1.9 -0.1
v 0.3 1.3 -0.1
v 0.3 1.8 -0.1
v 0.2 0.9 -0.3
v 0.2 1.1 -0.3
v 0.3 0.9 -0.3
v 0.3 1.1 -0.3
v -0.2 0.2 -0.4
v -0.2 0.5 -0.4
v -0.1 0.2 -0.4
v -0.1 0.5 -0.4
v 0.1 0 0.2
v 0.2 0 0.2
v 0.1 0 -0.1
v 0.2 0 -0.1
v -0.2 0.2 -0.3
v -0.1 0.2 -0.3
v -0.2 0.2 -0.4
v -0.1 0.2 -0.4
v -0.2 0.3 0.0999999
v -0.1 0.3 0.0999999
v -0.2 0.3 -0.3
v -0.1 0.3 -0.3
v -0.1 0.5 0.0999999
v 0.1 0.5 0.0999999
v -0.1 0.5 -0.1
v 0.1 0.5 -0.1
v -0.1 0.7 0.2
v 0.1 0.7 0.2
v -0.1 0.7 0.0999999
v 0.1 0.7 0.0999999
v -0.3 0.8 0.6
v -0.2 0.8 0.6
v -0.3 0.8 0.5
v -0.2 0.8 0.5
v -0.3 0.8 0.2
v -0.2 0.8 0.2
v -0.1 0.8 0.2
v 0.1 0.8 0.2
v 0.2 0.8 0.2
v -0.2 0.8 0.0999999
v -0.1 0.8 0.0999999
v 0.1 0.8 0.0999999
v 0.2 0.8 0.0999999
v -0.3 0.9 0.2
v -0.2 0.9 0.2
v -0.3 0.9 0.0999999
v -0.2 0.9 0.0999999
v 0.2 0.9 0.0999999
v 0.3 0.9 0.0999999
v 0.2 0.9 -5.96046e-08
v 0.2 0.9 -0.2
v 0.3 0.9 -0.2
v 0.2 0.9 -0.3
v 0.3 0.9 -0.3
v 0.2 1 0.2
v 0.3 1 0.2
v -0.3 1 0.0999999
v -0.2 1 0.0999999
v 0.2 1 0.0999999
v 0.3 1 0.0999999
v -0.3 1 -5.96046e-08
v -0.2 1 -5.96046e-08
v -0.1 1.2 0.3
v 0.1 1.2 0.3
v -0.1 1.2 0.2
v 0.1 1.2 0.2
v -0.3 1.3 0.5
v 0.3 1.3 0.5
v -0.1 1.3 0.3
v 0.1 1.3 0.3
v -0.1 1.3 0.0999999
v 0.1 1.3 0.0999999
v -0.3 1.3 -5.96046e-08
v 0.3 1.3 -5.96046e-08
v -0.3 1.3 -0.1
v 0.3 1.3 -0.1
v -0.4 1.5 0.3
v -0.3 1.5 0.3
v 0.3 1.5 0.3
v 0.4 1.5 0.3
v -0.4 1.5 0.2
v -0.3 1.5 0.2
v 0.3 1.5 0.2
v 0.4 1.5 0.2
v -0.2 1.9 0.6
v 0.2 1.9 0.6
v -0.2 1.9 0.5
v 0.2 1.9 0.5
v 0.1 0.1 0.2
v 0.2 0.1 0.2
v 0.1 0.1 0.0999999
v 0.2 0.1 0.0999999
v -0.2 0.5 -0.1
v -0.1 0.5 -0.1
v -0.2 0.5 -0.3
v -0.1 0.5 -0.3
v -0.2 0.5 -0.4
v -0.1 0.5 -0.4
v -0.2 0.8 -5.96046e-08
v -0.1 0.8 -5.96046e-08
v 0.1 0.8 -5.96046e-08
v 0.2 0.8 -5.96046e-08
v -0.2 0.8 -0.1
v -0.1 0.8 -0.1
v 0.1 0.8 -0.1
v 0.2 0.8 -0.1
v -0.1 0.9 -5.96046e-08
v 0.1 0.9 -5.96046e-08
v -0.1 0.9 -0.1
v 0.1 0.9 -0.1
v -0.3 1 0.6
v -0.2 1 0.6
v -0.3 1 0.5
v -0.2 1 0.5
v -0.3 1 0.2
v -0.2 1 0.2
v 0.2 1.1 -5.96046e-08
v 0.3 1.1 -5.96046e-08
v 0.2 1.1 -0.2
v 0.3 1.1 -0.2
v 0.2 1.1 -0.3
v 0.3 1.1 -0.3
v -0.3 1.2 0.2
v -0.1 1.2 0.2
v 0.1 1.2 0.2
v 0.3 1.2 0.2
v -0.1 1.2 0.0999999
v 0.1 1.2 0.0999999
v -0.3 1.2 -5.96046e-08
v 0.3 1.2 -5.96046e-08
v -0.4 1.7 0.3
v -0.3 1.7 0.3
v 0.3 1.7 0.3
v 0.4 1.7 0.3
v -0.4 1.7 0.2
v -0.3 1.7 0.2
v 0.3 1.7 0.2
v 0.4 1.7 0.2
v -0.3 1.8 -5.96046e-08
v -0.2 1.8 -5.96046e-08
v 0.2 1.8 -5.96046e-08
v 0.3 1.8 -5.96046e-08
v -0.3 1.8 -0.1
v -0.2 1.8 -0.1
v 0.2 1.8 -0.1
v 0.3 1.8 -0.1
v -0.3 1.9 0.2
v -0.2 1.9 0.2
v 0.2 1.9 0.2
v 0.3 1.9 0.2
v 0.2 1.9 0.0999999
v 0.3 1.9 0.0999999
v -0.3 1.9 -5.96046e-08
v -0.2 1.9 -5.96046e-08
v 0.2 1.9 -5.96046e-08
v 0.3 1.9 -5.96046e-08
v -0.2 1.9 -0.1
v 0.2 1.9 -0.1
v -0.3 2 0.5
v -0.2 2 0.5
v 0.2 2 0.5
v 0.3 2 0.5
v -0.2 2 0.4
v 0.2 2 0.4
v 0.3 2 0.4
v 0.2 2 0.3
v 0.3 2 0.3
v -0.3 2 0.2
v -0.2 2 0.2
v 0.2 2 0.2
v 0.3 2 0.2
v -0.2 2 -5.96046e-08
v 0.2 2 -5.96046e-08
v -0.2 2.1 0.6
v 0.2 2.1 0.6
v -0.2 2.1 0.4
v 0.2 2.1 0.4

# faces
f 3/1/1 2/1/1 1/1/1
f 4/1/1 2/1/1 3/1/1
f 8/4/1 7/4/1 6/4/1
f 10/1/1 6/1/1 5/1/1
f 11/4/1 9/4/1 8/4/1
f 11/1/1 6/1/1 10/1/1
f 11/4/1 8/4/1 6/4/1
f 12/4/1 9/4/1 11/4/1
f 13/4/1 9/4/1 12/4/1
f 15/4/1 14/4/1 13/4/1
f 15/4/1 13/4/1 12/4/1
f 16/4/1 14/4/1 15/4/1
f 20/1/1 18/1/1 17/1/1
f 21/2/1 19/2/1 18/2/1
f 21/1/1 18/1/1 20/1/1
f 22/1/1 20/1/1 17/1/1
f 23/2/1 21/2/1 20/2/1
f 23/1/1 20/1/1 22/1/1
f 24/1/1 22/1/1 17/1/1
f 25/1/1 22/1/1 24/1/1
f 26/2/1 21/2/1 23/2/1
f 27/1/1 24/1/1 17/1/1
f 28/2/1 25/2/1 24/2/1
f 28/1/1 24/1/1 27/1/1
f 28/2/1 26/2/1 25/2/1
f 29/2/1 19/2/1 21/2/1
f 29/2/1 26/2/1 28/2/1
f 29/2/1 21/2/1 26/2/1
f 30/2/1 19/2/1 29/2/1
f 31/2/1 28/2/1 27/2/1
f 31/2/1 29/2/1 28/2/1
f 32/2/1 29/2/1 31/2/1
f 33/2/1 31/2/1 27/2/1
f 34/2/1 31/2/1 33/2/1
f 38/6/1 36/6/1 35/6/1
f 39/3/1 38/3/1 37/3/1
f 40/6/1 36/6/1 38/6/1
f 40/3/1 38/3/1 39/3/1
f 41/6/1 36/6/1 40/6/1
f 42/3/1 39/3/1 37/3/1
f 43/3/1 39/3/1 42/3/1
f 45/4/1 43/4/1 42/4/1
f 46/4/1 43/4/1 45/4/1
f 47/4/1 43/4/1 46/4/1
f 48/4/1 45/4/1 44/4/1
f 48/4/1 46/4/1 45/4/1
f 49/4/1 46/4/1 48/4/1
f 50/4/1 46/4/1 49/4/1
f 51/4/1 46/4/1 50/4/1
f 57/2/1 53/2/1 52/2/1
f 58/2/1 53/2/1 57/2/1
f 59/2/1 55/2/1 54/2/1
f 61/2/1 57/2/1 56/2/1
f 62/2/1 57/2/1 61/2/1
f 63/2/1 60/2/1 59/2/1
f 63/2/1 59/2/1 54/2/1
f 64/2/1 60/2/1 63/2/1
f 67/4/1 66/4/1 65/4/1
f 68/4/1 66/4/1 67/4/1
f 71/4/1 70/4/1 69/4/1
f 72/4/1 70/4/1 71/4/1
f 76/1/1 74/1/1 73/1/1
f 76/1/1 75/1/1 74/1/1
f 77/1/1 75/1/1 76/1/1
f 80/6/1 79/6/1 78/6/1
f 81/6/1 79/6/1 80/6/1
f 82/6/1 79/6/1 81/6/1
f 83/3/1 82/3/1 81/3/1
f 84/3/1 82/3/1 83/3/1
f 88/4/1 86/4/1 85/4/1
f 89/1/1 87/1/1 86/1/1
f 89/4/1 86/4/1 88/4/1
f 90/1/1 87/1/1 89/1/1
f 91/1/2 92/1/2 94/1/2
f 92/4/2 93/4/2 95/4/2
f 94/1/2 92/1/2 95/1/2
f 95/4/2 93/4/2 96/4/2
f 97/6/2 98/6/2 100/6/2
f 99/3/2 100/3/2 101/3/2
f 101/3/2 100/3/2 102/3/2
f 100/6/2 98/6/2 103/6/2
f 102/3/2 100/3/2 103/3/2
f 103/6/2 98/6/2 104/6/2
f 105/4/2 106/4/2 107/4/2
f 107/4/2 106/4/2 108/4/2
f 109/4/2 110/4/2 111/4/2
f 111/4/2 110/4/2 112/4/2
f 113/1/2 114/1/2 116/1/2
f 114/1/2 115/1/2 116/1/2
f 116/1/2 115/1/2 117/1/2
f 118/6/2 119/6/2 120/6/2
f 120/6/2 119/6/2 121/6/2
f 121/6/2 119/6/2 122/6/2
f 121/3/2 122/3/2 123/3/2
f 123/3/2 122/3/2 124/3/2
f 123/4/2 124/4/2 126/4/2
f 126/4/2 124/4/2 127/4/2
f 127/4/2 124/4/2 128/4/2
f 125/4/2 126/4/2 129/4/2
f 126/4/2 127/4/2 129/4/2
f 129/4/2 127/4/2 130/4/2
f 125/4/2 129/4/2 131/4/2
f 131/4/2 129/4/2 132/4/2
f 133/2/2 134/2/2 139/2/2
f 139/2/2 134/2/2 140/2/2
f 135/2/2 136/2/2 141/2/2
f 137/2/2 138/2/2 143/2/2
f 138/2/2 139/2/2 143/2/2
f 143/2/2 139/2/2 144/2/2
f 141/2/2 142/2/2 145/2/2
f 135/2/2 141/2/2 145/2/2
f 145/2/2 142/2/2 146/2/2
f 147/4/2 148/4/2 151/4/2
f 151/4/2 148/4/2 152/4/2
f 150/4/2 151/4/2 152/4/2
f 148/1/2 149/1/2 153/1/2
f 152/4/2 148/4/2 153/4/2
f 153/1/2 149/1/2 154/1/2
f 150/4/2 152/4/2 155/4/2
f 155/4/2 152/4/2 156/4/2
f 157/1/2 158/1/2 160/1/2
f 158/2/2 159/2/2 161/2/2
f 160/1/2 158/1/2 161/1/2
f 157/1/2 160/1/2 162/1/2
f 160/2/2 161/2/2 163/2/2
f 162/1/2 160/1/2 163/1/2
f 157/1/2 162/1/2 164/1/2
f 164/1/2 162/1/2 165/1/2
f 163/2/2 161/2/2 166/2/2
f 166/2/2 161/2/2 167/2/2
f 157/1/2 164/1/2 168/1/2
f 164/2/2 165/2/2 169/2/2
f 168/1/2 164/1/2 169/1/2
f 165/2/2 166/2/2 169/2/2
f 169/2/2 166/2/2 170/2/2
f 161/2/2 159/2/2 171/2/2
f 167/2/2 161/2/2 171/2/2
f 171/2/2 159/2/2 172/2/2
f 170/2/2 166/2/2 173/2/2
f 166/5/2 167/5/2 173/5/2
f 167/2/2 171/2/2 174/2/2
f 173/5/2 167/5/2 174/5/2
f 174/2/2 171/2/2 175/2/2
f 168/2/2 169/2/2 176/2/2
f 169/5/2 170/5/2 177/5/2
f 176/2/2 169/2/2 177/2/2
f 170/2/2 173/2/2 178/2/2
f 177/5/2 170/5/2 178/5/2
f 178/2/2 173/2/2 179/2/2
f 180/1/2 181/1/2 182/1/2
f 182/1/2 181/1/2 183/1/2
f 186/1/3 185/1/3 184/1/3
f 187/1/3 185/1/3 186/1/3
f 190/2/3 189/2/3 188/2/3
f 191/2/3 189/2/3 190/2/3
f 195/1/3 193/1/3 192/1/3
f 196/1/3 193/1/3 195/1/3
f 197/2/3 194/2/3 193/2/3
f 198/2/3 194/2/3 197/2/3
f 199/1/3 195/1/3 192/1/3
f 199/7/3 196/7/3 195/7/3
f 200/1/3 193/1/3 196/1/3
f 200/7/3 196/7/3 199/7/3
f 201/1/3 199/1/3 192/1/3
f 201/1/3 200/1/3 199/1/3
f 202/1/3 193/1/3 200/1/3
f 202/1/3 200/1/3 201/1/3
f 203/1/3 201/1/3 192/1/3
f 203/7/3 202/7/3 201/7/3
f 204/1/3 193/1/3 202/1/3
f 204/7/3 202/7/3 203/7/3
f 205/2/3 197/2/3 193/2/3
f 207/1/3 203/1/3 192/1/3
f 207/1/3 204/1/3 203/1/3
f 208/2/3 206/2/3 205/2/3
f 208/1/3 204/1/3 207/1/3
f 208/1/3 193/1/3 204/1/3
f 208/2/3 205/2/3 193/2/3
f 209/2/3 206/2/3 208/2/3
f 212/1/3 211/1/3 210/1/3
f 213/1/3 211/1/3 212/1/3
f 216/1/3 215/1/3 214/1/3
f 217/1/3 215/1/3 216/1/3
f 220/1/3 219/1/3 218/1/3
f 221/1/3 219/1/3 220/1/3
f 225/4/3 223/4/3 222/4/3
f 227/4/3 225/4/3 224/4/3
f 228/4/3 223/4/3 225/4/3
f 228/4/3 225/4/3 227/4/3
f 231/4/3 227/4/3 226/4/3
f 231/4/3 228/4/3 227/4/3
f 232/4/3 228/4/3 231/4/3
f 233/4/3 228/4/3 232/4/3
f 234/6/3 230/6/3 229/6/3
f 235/6/3 230/6/3 234/6/3
f 236/4/3 233/4/3 232/4/3
f 237/4/3 233/4/3 236/4/3
f 238/4/3 233/4/3 237/4/3
f 239/4/3 233/4/3 238/4/3
f 243/3/3 241/3/3 240/3/3
f 244/3/3 241/3/3 243/3/3
f 245/4/3 242/4/3 241/4/3
f 246/4/3 242/4/3 245/4/3
f 248/3/3 241/3/3 244/3/3
f 249/4/3 245/4/3 241/4/3
f 251/3/3 248/3/3 247/3/3
f 252/4/3 250/4/3 249/4/3
f 252/3/3 248/3/3 251/3/3
f 252/3/3 241/3/3 248/3/3
f 252/4/3 249/4/3 241/4/3
f 253/4/3 250/4/3 252/4/3
f 256/4/3 255/4/3 254/4/3
f 257/4/3 255/4/3 256/4/3
f 260/6/3 259/6/3 258/6/3
f 261/6/3 259/6/3 260/6/3
f 262/2/4 263/2/4 264/2/4
f 264/2/4 263/2/4 265/2/4
f 266/1/4 267/1/4 270/1/4
f 270/1/4 267/1/4 271/1/4
f 268/4/4 269/4/4 274/4/4
f 274/4/4 269/4/4 275/4/4
f 272/2/4 273/2/4 276/2/4
f 276/2/4 273/2/4 277/2/4
f 278/2/4 279/2/4 282/2/4
f 282/2/4 279/2/4 283/2/4
f 280/1/4 281/1/4 284/1/4
f 284/1/4 281/1/4 285/1/4
f 286/4/4 287/4/4 288/4/4
f 288/4/4 287/4/4 289/4/4
f 290/1/4 291/1/4 292/1/4
f 292/1/4 291/1/4 293/1/4
f 294/4/4 295/4/4 299/4/4
f 296/2/4 297/2/4 300/2/4
f 300/2/4 297/2/4 301/2/4
f 298/4/4 299/4/4 303/4/4
f 303/4/4 299/4/4 304/4/4
f 304/4/4 299/4/4 306/4/4
f 305/4/4 306/4/4 307/4/4
f 306/4/4 299/4/4 308/4/4
f 307/4/4 306/4/4 308/4/4
f 299/4/4 295/4/4 309/4/4
f 308/4/4 299/4/4 309/4/4
f 301/2/4 302/2/4 311/2/4
f 311/2/4 302/2/4 312/2/4
f 309/4/4 295/4/4 313/4/4
f 313/4/4 295/4/4 314/4/4
f 310/2/4 311/2/4 315/2/4
f 315/2/4 311/2/4 316/2/4
f 317/2/4 318/2/4 322/2/4
f 319/3/4 320/3/4 324/3/4
f 320/4/4 321/4/4 325/4/4
f 324/3/4 320/3/4 329/3/4
f 320/4/4 325/4/4 330/4/4
f 325/4/4 326/4/4 330/4/4
f 330/4/4 326/4/4 331/4/4
f 327/6/4 328/6/4 332/6/4
f 328/3/4 329/3/4 333/3/4
f 332/6/4 328/6/4 333/6/4
f 329/3/4 320/3/4 334/3/4
f 333/3/4 329/3/4 334/3/4
f 320/4/4 330/4/4 334/4/4
f 334/4/4 330/4/4 335/4/4
f 322/2/4 323/2/4 336/2/4
f 317/2/4 322/2/4 336/2/4
f 336/2/4 323/2/4 337/2/4
f 317/2/4 336/2/4 338/2/4
f 338/2/4 336/2/4 339/2/4
f 340/1/4 341/1/4 342/1/4
f 342/1/4 341/1/4 343/1/4
f 344/6/4 345/6/4 346/6/4
f 346/6/4 345/6/4 347/6/4
f 350/6/5 349/6/5 348/6/5
f 351/6/5 349/6/5 350/6/5
f 354/6/5 353/6/5 352/6/5
f 355/6/5 353/6/5 354/6/5
f 358/3/5 357/3/5 356/3/5
f 359/3/5 357/3/5 358/3/5
f 362/3/5 361/3/5 360/3/5
f 363/3/5 361/3/5 362/3/5
f 366/4/5 365/4/5 364/4/5
f 367/4/5 365/4/5 366/4/5
f 370/1/5 369/1/5 368/1/5
f 371/1/5 369/1/5 370/1/5
f 372/4/5 371/4/5 370/4/5
f 373/4/5 371/4/5 372/4/5
f 377/4/5 374/4/5 373/4/5
f 378/4/5 374/4/5 377/4/5
f 379/4/5 376/4/5 375/4/5
f 380/4/5 376/4/5 379/4/5
f 383/4/5 382/4/5 381/4/5
f 384/4/5 382/4/5 383/4/5
f 387/4/5 386/4/5 385/4/5
f 388/4/5 386/4/5 387/4/5
f 389/4/5 386/4/5 388/4/5
f 390/1/5 389/1/5 388/1/5
f 391/1/5 389/1/5 390/1/5
f 396/4/5 393/4/5 392/4/5
f 397/4/5 393/4/5 396/4/5
f 398/4/5 395/4/5 394/4/5
f 399/4/5 395/4/5 398/4/5
f 402/1/5 401/1/5 400/1/5
f 403/1/5 401/1/5 402/1/5
f 406/1/5 405/1/5 404/1/5
f 407/1/5 405/1/5 406/1/5
f 408/1/5 406/1/5 404/1/5
f 409/1/5 405/1/5 407/1/5
f 410/1/5 408/1/5 404/1/5
f 410/1/5 409/1/5 408/1/5
f 411/1/5 405/1/5 409/1/5
f 411/1/5 409/1/5 410/1/5
f 412/2/5 411/2/5 410/2/5
f 413/2/5 411/2/5 412/2/5
f 418/1/5 415/1/5 414/1/5
f 419/1/5 415/1/5 418/1/5
f 420/1/5 417/1/5 416/1/5
f 421/1/5 417/1/5 420/1/5
f 424/2/5 423/2/5 422/2/5
f 425/2/5 423/2/5 424/2/5
f 426/6/6 427/6/6 428/6/6
f 428/6/6 427/6/6 429/6/6
f 430/3/6 431/3/6 432/3/6
f 432/3/6 431/3/6 433/3/6
f 432/6/6 433/6/6 434/6/6
f 434/6/6 433/6/6 435/6/6
f 436/4/6 437/4/6 440/4/6
f 440/4/6 437/4/6 441/4/6
f 438/4/6 439/4/6 442/4/6
f 442/4/6 439/4/6 443/4/6
f 444/4/6 445/4/6 446/4/6
f 446/4/6 445/4/6 447/4/6
f 448/1/6 449/1/6 450/1/6
f 450/1/6 449/1/6 451/1/6
f 450/4/6 451/4/6 452/4/6
f 452/4/6 451/4/6 453/4/6
f 454/4/6 455/4/6 456/4/6
f 456/4/6 455/4/6 457/4/6
f 456/1/6 457/1/6 458/1/6
f 458/1/6 457/1/6 459/1/6
f 460/4/6 461/4/6 464/4/6
f 462/4/6 463/4/6 465/4/6
f 460/4/6 464/4/6 466/4/6
f 464/4/6 465/4/6 466/4/6
f 465/4/6 463/4/6 467/4/6
f 466/4/6 465/4/6 467/4/6
f 468/1/6 469/1/6 472/1/6
f 472/1/6 469/1/6 473/1/6
f 470/1/6 471/1/6 474/1/6
f 474/1/6 471/1/6 475/1/6
f 476/2/6 477/2/6 480/2/6
f 480/2/6 477/2/6 481/2/6
f 478/2/6 479/2/6 482/2/6
f 482/2/6 479/2/6 483/2/6
f 486/5/6 487/5/6 488/5/6
f 488/5/6 487/5/6 489/5/6
f 484/2/6 485/2/6 490/2/6
f 490/2/6 485/2/6 491/2/6
f 488/2/6 489/2/6 492/2/6
f 492/2/6 489/2/6 493/2/6
f 491/2/6 492/2/6 494/2/6
f 494/2/6 492/2/6 495/2/6
f 496/2/6 497/2/6 500/2/6
f 498/2/6 499/2/6 501/2/6
f 501/2/6 499/2/6 502/2/6
f 500/2/6 501/2/6 503/2/6
f 501/5/6 502/5/6 503/5/6
f 503/5/6 502/5/6 504/5/6
f 496/2/6 500/2/6 505/2/6
f 500/2/6 503/2/6 505/2/6
f 503/2/6 504/2/6 505/2/6
f 505/2/6 504/2/6 506/2/6
f 506/2/6 504/2/6 507/2/6
f 507/2/6 504/2/6 508/2/6
f 506/2/6 507/2/6 509/2/6
f 509/2/6 507/2/6 510/2/6
f 511/2/6 512/2/6 513/2/6
f 513/2/6 512/2/6 514/2/6
