# MagicaVoxel @ Ephtracy

# group
o 

# material
mtllib gnome_v0_sword0.mtl
usemtl palette

# normals
vn -1 0 0
vn 1 0 0
vn 0 0 1
vn 0 0 -1
vn 0 -1 0
vn 0 1 0

# texcoords
vt 0.0566406 0.5
vt 0.0800781 0.5
vt 0.0839844 0.5
vt 0.775391 0.5

# verts
v -0.2 0.5 0.4
v -0.2 0.5 0.3
v -0.2 0.5 0
v -0.2 0.6 0.4
v -0.2 0.6 0.3
v -0.2 0.6 0.2
v -0.2 0.6 0
v -0.2 0.6 -0.1
v -0.2 0.6 -0.2
v -0.2 0.7 0.2
v -0.2 0.7 0.1
v -0.2 0.7 0
v -0.2 0.7 -0.1
v -0.2 0.8 0
v -0.2 0.8 -0.2
v -0.2 0.9 0.2
v -0.2 0.9 0.1
v -0.2 0.9 0
v -0.2 1 0.2
v -0.2 1 0.1
v -0.2 1 0
v -0.2 1.1 0
v -0.2 1.1 -0.2
v -0.1 0.3 0.1
v -0.1 0.3 -0.1
v -0.1 0.4 0.2
v -0.1 0.4 0.1
v -0.1 0.5 0.2
v -0.1 0.5 0.1
v -0.1 0.5 0
v -0.1 0.5 -0.1
v -0.1 0.5 -0.2
v -0.1 0.6 0
v -0.1 0.6 -0.1
v -0.1 0.6 -0.2
v -0.1 1 0.1
v -0.1 1 0
v -0.1 1.1 0.1
v -0.1 1.1 0
v -0.1 1.1 -0.2
v -0.1 1.2 0
v -0.1 1.2 -0.1
v -0.1 1.3 -0.1
v -0.1 1.3 -0.2
v 0 1.3 -0.1
v 0 1.3 -0.2
v 0 1.4 -0.1
v 0 1.4 -0.2
v -0.1 0.5 0.4
v -0.1 0.5 0.3
v -0.1 0.5 0.2
v -0.1 0.6 0.4
v -0.1 0.6 0.3
v -0.1 0.6 0.2
v 0.1 0.3 0.1
v 0.1 0.3 0
v 0.1 0.4 0.2
v 0.1 0.4 0.1
v 0.1 0.4 0
v 0.1 0.5 -0.1
v 0.1 0.5 -0.2
v 0.1 0.6 0.2
v 0.1 0.6 0.1
v 0.1 0.6 0
v 0.1 0.6 -0.1
v 0.1 0.6 -0.2
v 0.1 1 0.1
v 0.1 1 0
v 0.1 1.1 0.1
v 0.1 1.1 0
v 0.1 1.1 -0.1
v 0.1 1.2 0
v 0.1 1.2 -0.1
v 0.1 1.2 -0.2
v 0.1 1.4 -0.1
v 0.1 1.4 -0.2
v 0.2 0.3 0
v 0.2 0.3 -0.1
v 0.2 0.4 0
v 0.2 0.4 -0.1
v 0.2 0.6 0.2
v 0.2 0.6 0
v 0.2 0.6 -0.1
v 0.2 0.6 -0.2
v 0.2 0.7 0.2
v 0.2 0.7 0.1
v 0.2 0.7 0
v 0.2 0.7 -0.1
v 0.2 0.8 0
v 0.2 0.8 -0.2
v 0.2 0.9 0.2
v 0.2 0.9 0.1
v 0.2 0.9 0
v 0.2 1 0.2
v 0.2 1 0.1
v 0.2 1 0
v 0.2 1.1 0
v 0.2 1.1 -0.1
v 0.2 1.2 -0.1
v 0.2 1.2 -0.2
v -0.2 0.5 0.4
v -0.2 0.6 0.4
v -0.1 0.5 0.4
v -0.1 0.6 0.4
v -0.2 0.6 0.2
v -0.2 0.7 0.2
v -0.2 0.9 0.2
v -0.2 1 0.2
v -0.1 0.4 0.2
v -0.1 0.5 0.2
v -0.1 0.6 0.2
v -0.1 0.7 0.2
v 0.1 0.4 0.2
v 0.1 0.6 0.2
v 0.1 0.7 0.2
v 0.2 0.6 0.2
v 0.2 0.7 0.2
v 0.2 0.9 0.2
v 0.2 1 0.2
v -0.1 0.3 0.1
v -0.1 0.4 0.1
v -0.1 1 0.1
v -0.1 1.1 0.1
v 0.1 0.3 0.1
v 0.1 0.4 0.1
v 0.1 1 0.1
v 0.1 1.1 0.1
v -0.2 1 0
v -0.2 1.1 0
v -0.1 1 0
v -0.1 1.1 0
v -0.1 1.2 0
v 0.1 0.3 0
v 0.1 0.4 0
v 0.1 0.6 0
v 0.1 1 0
v 0.1 1.1 0
v 0.1 1.2 0
v 0.2 0.3 0
v 0.2 0.4 0
v 0.2 0.6 0
v 0.2 1 0
v 0.2 1.1 0
v -0.1 1.2 -0.1
v -0.1 1.3 -0.1
v 0 1.3 -0.1
v 0 1.4 -0.1
v 0.1 1.1 -0.1
v 0.1 1.2 -0.1
v 0.1 1.4 -0.1
v 0.2 1.1 -0.1
v 0.2 1.2 -0.1
v -0.2 0.5 0
v -0.2 0.6 0
v -0.1 0.5 0
v -0.1 0.6 0
v -0.1 0.3 -0.1
v -0.1 0.5 -0.1
v 0.1 0.3 -0.1
v 0.1 0.4 -0.1
v 0.1 0.5 -0.1
v 0.1 0.6 -0.1
v 0.2 0.3 -0.1
v 0.2 0.4 -0.1
v 0.2 0.6 -0.1
v -0.2 0.6 -0.2
v -0.2 0.8 -0.2
v -0.2 1.1 -0.2
v -0.1 0.5 -0.2
v -0.1 0.6 -0.2
v -0.1 1.1 -0.2
v -0.1 1.3 -0.2
v 0 1.3 -0.2
v 0 1.4 -0.2
v 0.1 0.5 -0.2
v 0.1 0.6 -0.2
v 0.1 1.2 -0.2
v 0.1 1.4 -0.2
v 0.2 0.6 -0.2
v 0.2 0.8 -0.2
v 0.2 1.2 -0.2
v -0.1 0.3 0.1
v 0.1 0.3 0.1
v 0.1 0.3 0
v 0.2 0.3 0
v -0.1 0.3 -0.1
v 0.1 0.3 -0.1
v 0.2 0.3 -0.1
v -0.1 0.4 0.2
v 0.1 0.4 0.2
v -0.1 0.4 0.1
v 0.1 0.4 0.1
v -0.2 0.5 0.4
v -0.1 0.5 0.4
v -0.2 0.5 0.3
v -0.1 0.5 0.3
v -0.1 0.5 0.2
v -0.1 0.5 0.1
v -0.2 0.5 0
v -0.1 0.5 0
v -0.1 0.5 -0.1
v 0.1 0.5 -0.1
v -0.1 0.5 -0.2
v 0.1 0.5 -0.2
v 0.1 0.6 0.2
v 0.2 0.6 0.2
v 0.1 0.6 0.1
v -0.2 0.6 0
v -0.1 0.6 0
v 0.1 0.6 0
v 0.2 0.6 0
v -0.2 0.6 -0.1
v -0.1 0.6 -0.1
v 0.1 0.6 -0.1
v 0.2 0.6 -0.1
v -0.2 0.6 -0.2
v -0.1 0.6 -0.2
v 0.1 0.6 -0.2
v 0.2 0.6 -0.2
v -0.2 0.6 0.4
v -0.1 0.6 0.4
v -0.2 0.6 0.3
v -0.1 0.6 0.3
v -0.2 0.6 0.2
v -0.1 0.6 0.2
v -0.2 1 0.2
v 0.2 1 0.2
v -0.2 1 0.1
v -0.1 1 0.1
v 0.1 1 0.1
v 0.2 1 0.1
v -0.2 1 0
v -0.1 1 0
v 0.1 1 0
v 0.2 1 0
v -0.1 1.1 0.1
v 0.1 1.1 0.1
v -0.2 1.1 0
v -0.1 1.1 0
v 0.1 1.1 0
v 0.2 1.1 0
v 0.1 1.1 -0.1
v 0.2 1.1 -0.1
v -0.2 1.1 -0.2
v -0.1 1.1 -0.2
v -0.1 1.2 0
v 0.1 1.2 0
v -0.1 1.2 -0.1
v 0.1 1.2 -0.1
v 0.2 1.2 -0.1
v 0.1 1.2 -0.2
v 0.2 1.2 -0.2
v -0.1 1.3 -0.1
v 0 1.3 -0.1
v -0.1 1.3 -0.2
v 0 1.3 -0.2
v 0 1.4 -0.1
v 0.1 1.4 -0.1
v 0 1.4 -0.2
v 0.1 1.4 -0.2

# faces
f 4/3/1 2/3/1 1/3/1
f 5/4/1 3/4/1 2/4/1
f 5/3/1 2/3/1 4/3/1
f 6/4/1 3/4/1 5/4/1
f 7/4/1 3/4/1 6/4/1
f 10/2/1 7/2/1 6/2/1
f 11/2/1 7/2/1 10/2/1
f 12/3/1 8/3/1 7/3/1
f 12/2/1 7/2/1 11/2/1
f 13/2/1 9/2/1 8/2/1
f 13/3/1 8/3/1 12/3/1
f 14/2/1 12/2/1 11/2/1
f 14/2/1 13/2/1 12/2/1
f 15/2/1 9/2/1 13/2/1
f 15/2/1 13/2/1 14/2/1
f 16/3/1 11/3/1 10/3/1
f 17/2/1 14/2/1 11/2/1
f 17/3/1 11/3/1 16/3/1
f 18/1/1 15/1/1 14/1/1
f 18/2/1 14/2/1 17/2/1
f 19/2/1 17/2/1 16/2/1
f 20/1/1 18/1/1 17/1/1
f 20/2/1 17/2/1 19/2/1
f 21/1/1 15/1/1 18/1/1
f 21/1/1 18/1/1 20/1/1
f 22/1/1 15/1/1 21/1/1
f 23/1/1 15/1/1 22/1/1
f 27/4/1 25/4/1 24/4/1
f 28/2/1 27/2/1 26/2/1
f 29/4/1 25/4/1 27/4/1
f 29/2/1 27/2/1 28/2/1
f 30/4/1 25/4/1 29/4/1
f 31/4/1 25/4/1 30/4/1
f 33/4/1 31/4/1 30/4/1
f 34/2/1 32/2/1 31/2/1
f 34/4/1 31/4/1 33/4/1
f 35/2/1 32/2/1 34/2/1
f 38/1/1 37/1/1 36/1/1
f 39/1/1 37/1/1 38/1/1
f 41/1/1 40/1/1 39/1/1
f 42/1/1 40/1/1 41/1/1
f 43/1/1 40/1/1 42/1/1
f 44/1/1 40/1/1 43/1/1
f 47/1/1 46/1/1 45/1/1
f 48/1/1 46/1/1 47/1/1
f 49/3/2 50/3/2 52/3/2
f 50/4/2 51/4/2 53/4/2
f 52/3/2 50/3/2 53/3/2
f 53/4/2 51/4/2 54/4/2
f 55/4/2 56/4/2 58/4/2
f 58/4/2 56/4/2 59/4/2
f 57/2/2 58/2/2 62/2/2
f 58/4/2 59/4/2 63/4/2
f 62/2/2 58/2/2 63/2/2
f 63/4/2 59/4/2 64/4/2
f 60/2/2 61/2/2 65/2/2
f 65/2/2 61/2/2 66/2/2
f 67/1/2 68/1/2 69/1/2
f 69/1/2 68/1/2 70/1/2
f 70/1/2 71/1/2 72/1/2
f 72/1/2 71/1/2 73/1/2
f 73/1/2 74/1/2 75/1/2
f 75/1/2 74/1/2 76/1/2
f 77/3/2 78/3/2 79/3/2
f 79/3/2 78/3/2 80/3/2
f 79/4/2 80/4/2 82/4/2
f 82/4/2 80/4/2 83/4/2
f 81/2/2 82/2/2 85/2/2
f 85/2/2 82/2/2 86/2/2
f 82/3/2 83/3/2 87/3/2
f 86/2/2 82/2/2 87/2/2
f 83/2/2 84/2/2 88/2/2
f 87/3/2 83/3/2 88/3/2
f 86/2/2 87/2/2 89/2/2
f 87/2/2 88/2/2 89/2/2
f 88/2/2 84/2/2 90/2/2
f 89/2/2 88/2/2 90/2/2
f 85/3/2 86/3/2 91/3/2
f 86/2/2 89/2/2 92/2/2
f 91/3/2 86/3/2 92/3/2
f 89/1/2 90/1/2 93/1/2
f 92/2/2 89/2/2 93/2/2
f 91/2/2 92/2/2 94/2/2
f 92/1/2 93/1/2 95/1/2
f 94/2/2 92/2/2 95/2/2
f 93/1/2 90/1/2 96/1/2
f 95/1/2 93/1/2 96/1/2
f 96/1/2 90/1/2 97/1/2
f 97/1/2 90/1/2 98/1/2
f 98/1/2 90/1/2 99/1/2
f 99/1/2 90/1/2 100/1/2
f 103/3/3 102/3/3 101/3/3
f 104/3/3 102/3/3 103/3/3
f 111/2/3 106/2/3 105/2/3
f 112/3/3 107/3/3 106/3/3
f 112/2/3 106/2/3 111/2/3
f 113/2/3 110/2/3 109/2/3
f 113/2/3 111/2/3 110/2/3
f 114/3/3 112/3/3 111/3/3
f 114/2/3 111/2/3 113/2/3
f 115/3/3 107/3/3 112/3/3
f 115/3/3 112/3/3 114/3/3
f 116/2/3 115/2/3 114/2/3
f 117/3/3 107/3/3 115/3/3
f 117/2/3 115/2/3 116/2/3
f 118/2/3 108/2/3 107/2/3
f 118/3/3 107/3/3 117/3/3
f 119/2/3 108/2/3 118/2/3
f 124/4/3 121/4/3 120/4/3
f 125/4/3 121/4/3 124/4/3
f 126/1/3 123/1/3 122/1/3
f 127/1/3 123/1/3 126/1/3
f 130/1/3 129/1/3 128/1/3
f 131/1/3 129/1/3 130/1/3
f 137/1/3 132/1/3 131/1/3
f 138/1/3 132/1/3 137/1/3
f 139/3/3 134/3/3 133/3/3
f 140/4/3 135/4/3 134/4/3
f 140/3/3 134/3/3 139/3/3
f 141/4/3 135/4/3 140/4/3
f 142/1/3 137/1/3 136/1/3
f 143/1/3 137/1/3 142/1/3
f 146/1/3 145/1/3 144/1/3
f 149/1/3 146/1/3 144/1/3
f 149/1/3 147/1/3 146/1/3
f 150/1/3 147/1/3 149/1/3
f 151/1/3 149/1/3 148/1/3
f 152/1/3 149/1/3 151/1/3
f 153/4/4 154/4/4 155/4/4
f 155/4/4 154/4/4 156/4/4
f 157/4/4 158/4/4 159/4/4
f 159/4/4 158/4/4 160/4/4
f 160/4/4 158/4/4 161/4/4
f 159/3/4 160/3/4 163/3/4
f 161/4/4 162/4/4 164/4/4
f 163/3/4 160/3/4 164/3/4
f 160/4/4 161/4/4 164/4/4
f 164/4/4 162/4/4 165/4/4
f 166/2/4 167/2/4 170/2/4
f 167/1/4 168/1/4 171/1/4
f 171/1/4 172/1/4 173/1/4
f 169/2/4 170/2/4 175/2/4
f 170/2/4 167/2/4 176/2/4
f 175/2/4 170/2/4 176/2/4
f 173/1/4 174/1/4 177/1/4
f 171/1/4 173/1/4 177/1/4
f 177/1/4 174/1/4 178/1/4
f 176/2/4 167/2/4 179/2/4
f 167/1/4 171/1/4 180/1/4
f 179/2/4 167/2/4 180/2/4
f 171/1/4 177/1/4 180/1/4
f 180/1/4 177/1/4 181/1/4
f 184/4/5 183/4/5 182/4/5
f 186/4/5 184/4/5 182/4/5
f 187/3/5 185/3/5 184/3/5
f 187/4/5 184/4/5 186/4/5
f 188/3/5 185/3/5 187/3/5
f 191/2/5 190/2/5 189/2/5
f 192/2/5 190/2/5 191/2/5
f 195/3/5 194/3/5 193/3/5
f 196/3/5 194/3/5 195/3/5
f 197/4/5 196/4/5 195/4/5
f 198/4/5 197/4/5 195/4/5
f 199/4/5 198/4/5 195/4/5
f 200/4/5 198/4/5 199/4/5
f 203/2/5 202/2/5 201/2/5
f 204/2/5 202/2/5 203/2/5
f 207/2/5 206/2/5 205/2/5
f 210/2/5 206/2/5 207/2/5
f 211/2/5 206/2/5 210/2/5
f 212/3/5 209/3/5 208/3/5
f 213/3/5 209/3/5 212/3/5
f 216/2/5 213/2/5 212/2/5
f 217/2/5 213/2/5 216/2/5
f 218/2/5 215/2/5 214/2/5
f 219/2/5 215/2/5 218/2/5
f 220/3/6 221/3/6 222/3/6
f 222/3/6 221/3/6 223/3/6
f 222/4/6 223/4/6 224/4/6
f 224/4/6 223/4/6 225/4/6
f 226/2/6 227/2/6 228/2/6
f 228/2/6 227/2/6 229/2/6
f 229/2/6 227/2/6 230/2/6
f 230/2/6 227/2/6 231/2/6
f 228/1/6 229/1/6 232/1/6
f 232/1/6 229/1/6 233/1/6
f 230/1/6 231/1/6 234/1/6
f 234/1/6 231/1/6 235/1/6
f 236/1/6 237/1/6 239/1/6
f 239/1/6 237/1/6 240/1/6
f 240/1/6 241/1/6 242/1/6
f 242/1/6 241/1/6 243/1/6
f 238/1/6 239/1/6 244/1/6
f 244/1/6 239/1/6 245/1/6
f 246/1/6 247/1/6 248/1/6
f 248/1/6 247/1/6 249/1/6
f 249/1/6 250/1/6 251/1/6
f 251/1/6 250/1/6 252/1/6
f 253/1/6 254/1/6 255/1/6
f 255/1/6 254/1/6 256/1/6
f 257/1/6 258/1/6 259/1/6
f 259/1/6 258/1/6 260/1/6
