# MagicaVoxel @ Ephtracy

# group
o 

# material
mtllib halbard.mtl
usemtl palette

# normals
vn -1 0 0
vn 1 0 0
vn 0 0 1
vn 0 0 -1
vn 0 -1 0
vn 0 1 0

# texcoords
vt 0.146484 0.5
vt 0.177734 0.5
vt 0.931641 0.5

# verts
v -0.1 -2.2 0.1
v -0.1 -2.2 -0.1
v -0.1 -1.8 0.1
v -0.1 -1.8 -0.1
v -0.1 -0.4 0.1
v -0.1 -0.4 -0.1
v -0.1 0.4 0.1
v -0.1 0.4 -0.1
v -0.1 1.4 0.1
v -0.1 1.4 -0.1
v -0.1 1.6 0.1
v -0.1 1.6 -0.1
v -0.1 1.8 0.3
v -0.1 1.8 0.1
v -0.1 2 0.1
v -0.1 2 -0.1
v -0.1 2.2 0.1
v -0.1 2.2 -0.1
v -0.1 2.2 -0.3
v -0.1 2.4 0.1
v -0.1 2.4 -0.1
v -0.1 2.6 0.3
v -0.1 2.6 0.1
v -0.1 2.6 -0.1
v -0.1 2.6 -0.3
v -0.1 3 0.1
v -0.1 3 -0.1
v 0.1 -2.2 0.1
v 0.1 -2.2 -0.1
v 0.1 -1.8 0.1
v 0.1 -1.8 -0.1
v 0.1 -0.4 0.1
v 0.1 -0.4 -0.1
v 0.1 0.4 0.1
v 0.1 0.4 -0.1
v 0.1 1.4 0.1
v 0.1 1.4 -0.1
v 0.1 1.6 0.1
v 0.1 1.6 -0.1
v 0.1 1.8 0.3
v 0.1 1.8 0.1
v 0.1 2 0.1
v 0.1 2 -0.1
v 0.1 2.2 0.1
v 0.1 2.2 -0.1
v 0.1 2.2 -0.3
v 0.1 2.4 0.1
v 0.1 2.4 -0.1
v 0.1 2.6 0.3
v 0.1 2.6 0.1
v 0.1 2.6 -0.1
v 0.1 2.6 -0.3
v 0.1 3 0.1
v 0.1 3 -0.1
v -0.1 1.8 0.3
v -0.1 2.6 0.3
v 0.1 1.8 0.3
v 0.1 2.6 0.3
v -0.1 -2.2 0.1
v -0.1 -1.8 0.1
v -0.1 -0.4 0.1
v -0.1 0.4 0.1
v -0.1 1.4 0.1
v -0.1 1.6 0.1
v -0.1 1.8 0.1
v -0.1 2.6 0.1
v -0.1 3 0.1
v 0.1 -2.2 0.1
v 0.1 -1.8 0.1
v 0.1 -0.4 0.1
v 0.1 0.4 0.1
v 0.1 1.4 0.1
v 0.1 1.6 0.1
v 0.1 1.8 0.1
v 0.1 2.6 0.1
v 0.1 3 0.1
v -0.1 -2.2 -0.1
v -0.1 -1.8 -0.1
v -0.1 -0.4 -0.1
v -0.1 0.4 -0.1
v -0.1 1.4 -0.1
v -0.1 1.6 -0.1
v -0.1 2 -0.1
v -0.1 2.2 -0.1
v -0.1 2.6 -0.1
v -0.1 3 -0.1
v 0.1 -2.2 -0.1
v 0.1 -1.8 -0.1
v 0.1 -0.4 -0.1
v 0.1 0.4 -0.1
v 0.1 1.4 -0.1
v 0.1 1.6 -0.1
v 0.1 2 -0.1
v 0.1 2.2 -0.1
v 0.1 2.6 -0.1
v 0.1 3 -0.1
v -0.1 2.2 -0.3
v -0.1 2.6 -0.3
v 0.1 2.2 -0.3
v 0.1 2.6 -0.3
v -0.1 -2.2 0.1
v 0.1 -2.2 0.1
v -0.1 -2.2 -0.1
v 0.1 -2.2 -0.1
v -0.1 1.8 0.3
v 0.1 1.8 0.3
v -0.1 1.8 0.1
v 0.1 1.8 0.1
v -0.1 2.2 -0.1
v 0.1 2.2 -0.1
v -0.1 2.2 -0.3
v 0.1 2.2 -0.3
v -0.1 2.6 0.3
v 0.1 2.6 0.3
v -0.1 2.6 0.1
v 0.1 2.6 0.1
v -0.1 2.6 -0.1
v 0.1 2.6 -0.1
v -0.1 2.6 -0.3
v 0.1 2.6 -0.3
v -0.1 3 0.1
v 0.1 3 0.1
v -0.1 3 -0.1
v 0.1 3 -0.1

# faces
f 3/3/1 2/3/1 1/3/1
f 4/3/1 2/3/1 3/3/1
f 5/2/1 4/2/1 3/2/1
f 6/2/1 4/2/1 5/2/1
f 7/1/1 6/1/1 5/1/1
f 8/1/1 6/1/1 7/1/1
f 9/2/1 8/2/1 7/2/1
f 10/2/1 8/2/1 9/2/1
f 11/3/1 10/3/1 9/3/1
f 12/3/1 10/3/1 11/3/1
f 14/2/1 12/2/1 11/2/1
f 15/2/1 12/2/1 14/2/1
f 15/3/1 14/3/1 13/3/1
f 16/2/1 12/2/1 15/2/1
f 17/3/1 15/3/1 13/3/1
f 17/3/1 16/3/1 15/3/1
f 18/3/1 16/3/1 17/3/1
f 20/2/1 18/2/1 17/2/1
f 20/3/1 17/3/1 13/3/1
f 21/3/1 19/3/1 18/3/1
f 21/2/1 18/2/1 20/2/1
f 22/3/1 20/3/1 13/3/1
f 22/3/1 21/3/1 20/3/1
f 23/3/1 21/3/1 22/3/1
f 24/3/1 19/3/1 21/3/1
f 24/3/1 21/3/1 23/3/1
f 25/3/1 19/3/1 24/3/1
f 26/3/1 24/3/1 23/3/1
f 27/3/1 24/3/1 26/3/1
f 28/3/2 29/3/2 30/3/2
f 30/3/2 29/3/2 31/3/2
f 30/2/2 31/2/2 32/2/2
f 32/2/2 31/2/2 33/2/2
f 32/1/2 33/1/2 34/1/2
f 34/1/2 33/1/2 35/1/2
f 34/2/2 35/2/2 36/2/2
f 36/2/2 35/2/2 37/2/2
f 36/3/2 37/3/2 38/3/2
f 38/3/2 37/3/2 39/3/2
f 38/2/2 39/2/2 41/2/2
f 41/2/2 39/2/2 42/2/2
f 40/3/2 41/3/2 42/3/2
f 42/2/2 39/2/2 43/2/2
f 40/3/2 42/3/2 44/3/2
f 42/3/2 43/3/2 44/3/2
f 44/3/2 43/3/2 45/3/2
f 44/2/2 45/2/2 47/2/2
f 40/3/2 44/3/2 47/3/2
f 45/3/2 46/3/2 48/3/2
f 47/2/2 45/2/2 48/2/2
f 40/3/2 47/3/2 49/3/2
f 47/3/2 48/3/2 49/3/2
f 49/3/2 48/3/2 50/3/2
f 48/3/2 46/3/2 51/3/2
f 50/3/2 48/3/2 51/3/2
f 51/3/2 46/3/2 52/3/2
f 50/3/2 51/3/2 53/3/2
f 53/3/2 51/3/2 54/3/2
f 57/3/3 56/3/3 55/3/3
f 58/3/3 56/3/3 57/3/3
f 68/3/3 60/3/3 59/3/3
f 69/2/3 61/2/3 60/2/3
f 69/3/3 60/3/3 68/3/3
f 70/1/3 62/1/3 61/1/3
f 70/2/3 61/2/3 69/2/3
f 71/2/3 63/2/3 62/2/3
f 71/1/3 62/1/3 70/1/3
f 72/3/3 64/3/3 63/3/3
f 72/2/3 63/2/3 71/2/3
f 73/2/3 65/2/3 64/2/3
f 73/3/3 64/3/3 72/3/3
f 74/2/3 65/2/3 73/2/3
f 75/3/3 67/3/3 66/3/3
f 76/3/3 67/3/3 75/3/3
f 77/3/4 78/3/4 87/3/4
f 78/2/4 79/2/4 88/2/4
f 87/3/4 78/3/4 88/3/4
f 79/1/4 80/1/4 89/1/4
f 88/2/4 79/2/4 89/2/4
f 80/2/4 81/2/4 90/2/4
f 89/1/4 80/1/4 90/1/4
f 81/3/4 82/3/4 91/3/4
f 90/2/4 81/2/4 91/2/4
f 82/2/4 83/2/4 92/2/4
f 91/3/4 82/3/4 92/3/4
f 83/3/4 84/3/4 93/3/4
f 92/2/4 83/2/4 93/2/4
f 93/3/4 84/3/4 94/3/4
f 85/3/4 86/3/4 95/3/4
f 95/3/4 86/3/4 96/3/4
f 97/3/4 98/3/4 99/3/4
f 99/3/4 98/3/4 100/3/4
f 103/3/5 102/3/5 101/3/5
f 104/3/5 102/3/5 103/3/5
f 107/3/5 106/3/5 105/3/5
f 108/3/5 106/3/5 107/3/5
f 111/3/5 110/3/5 109/3/5
f 112/3/5 110/3/5 111/3/5
f 113/3/6 114/3/6 115/3/6
f 115/3/6 114/3/6 116/3/6
f 117/3/6 118/3/6 119/3/6
f 119/3/6 118/3/6 120/3/6
f 121/3/6 122/3/6 123/3/6
f 123/3/6 122/3/6 124/3/6
